<?xml version="1.0" standalone="no"?>
<!DOCTYPE svg PUBLIC "-//W3C//DTD SVG 1.1//EN" "http://www.w3.org/Graphics/SVG/1.1/DTD/svg11.dtd" >
<svg xmlns="http://www.w3.org/2000/svg" xmlns:xlink="http://www.w3.org/1999/xlink" version="1.1">
<metadata>
Created by FontForge 20150913 at Tue Apr 19 16:48:46 2016
 By Jimmy Wärting
Copyright (c) 2016 by Ovoz Digital. All rights reserved.
</metadata>
<defs>
<font id="Octomorf-Regular" horiz-adv-x="833" >
  <font-face 
    font-family="Octomorf"
    font-weight="400"
    font-stretch="normal"
    units-per-em="2048"
    panose-1="0 0 0 0 0 0 0 0 0 0"
    ascent="1536"
    descent="-512"
    x-height="713"
    cap-height="1195"
    bbox="-446.32 -610.556 1181.03 1489"
    underline-thickness="50"
    underline-position="-100"
    unicode-range="U+000D-007A"
  />
<missing-glyph horiz-adv-x="302" 
 />
    <glyph glyph-name=".notdef" horiz-adv-x="302" 
 />
    <glyph glyph-name="NULL" horiz-adv-x="0" 
 />
    <glyph glyph-name="NULL" horiz-adv-x="0" 
 />
    <glyph glyph-name="nonmarkingreturn" unicode="&#xd;" horiz-adv-x="302" 
 />
    <glyph glyph-name="space" unicode=" " horiz-adv-x="302" 
 />
    <glyph glyph-name="e" unicode="e" horiz-adv-x="471" 
d="M150 722q17 -8 31 -14t27 -14q13 -9 23 3q11 16 22 31t25 28q17 14 35 26t43 8q41 -5 70 -37q14 -16 24 -33t11 -39q0 -32 -9 -63q-8 -31 -17 -61.5t-17 -62.5q-5 -17 -10.5 -32.5t-15.5 -30.5q-9 -14 -21 -9q-15 5 -30 7.5t-28 12.5q-6 5 -15.5 6t-17.5 0
q-26 -4 -49 5.5t-46 23.5q-5 -13 -10 -24.5t-9 -23.5q-3 -14 -5 -28.5t-5 -28.5q-2 -12 -5 -23.5t-6 -24.5q-5 -23 -10.5 -45.5t-11.5 -45.5q-4 -17 -9.5 -34.5t-11.5 -34.5q-3 -8 -1 -19t7 -21t13 -17.5t17 -7.5q5 0 11 3t11 6q24 21 32 52q12 46 24 91t24 91q2 8 6.5 13
t14.5 0q17 -6 32.5 -11.5t30.5 -11.5q15 -7 12 -23q-5 -31 -13.5 -59.5t-22.5 -57.5q-9 -17 -15 -35.5t-13 -36.5q-3 -9 -12.5 -18.5t-21.5 -18t-24.5 -14t-22.5 -5.5q-31 2 -57 10t-49 28q-8 7 -17 6t-17 -2t-17.5 -1.5t-17.5 0.5q-3 0 -6 3.5t-4 8.5q-6 18 -5.5 35.5
t4.5 34.5t10 33.5t9 33.5q8 43 19.5 85.5t23.5 84.5q14 52 30.5 103t32.5 102q11 37 20 72q2 3 1 8t-1 13zM190 499q2 -1 3.5 -2t2.5 -1q27 2 53.5 -1t53.5 -8q7 -2 9 2.5t4 9.5q9 26 18 51t17 51q10 35 18.5 68.5t16.5 67.5q2 5 0 12t-5 9q-16 5 -33 0q-6 -1 -11.5 -4.5
t-11.5 -6.5q-14 -5 -26 -11t-20 -20q0 -2 -1.5 -3t-2.5 -2q-4 -5 -7.5 -7.5t-7.5 -7.5q-6 -6 -10 -19l-10 -20t-8 -21q-6 -17 -11 -35.5t-11 -36.5q-4 -17 -9.5 -32.5t-10.5 -32.5z" />
    <glyph glyph-name="f" unicode="f" horiz-adv-x="463" 
d="M547 674q2 -28 -10 -52t-20 -48q-14 -35 -29 -69.5t-30 -67.5q-5 -11 -12.5 -23.5t-24.5 -13.5q-2 0 -5.5 0.5t-5.5 2.5q-14 15 -30 31t-31 33q-6 7 -7 13.5t7 15.5q25 54 49.5 107.5t50.5 107.5q6 14 8.5 30.5t5.5 33.5q2 26 -4 33.5t-31 9.5q-11 0 -21.5 5t-22.5 -4
q-2 -1 -3.5 -1.5t-2.5 -1.5q1 0 -5 -2q-6 -6 -15 -17t-20 -25.5t-23 -31.5t-24 -33q-27 -39 -58 -85q-10 -45 -27 -87.5t-33 -86.5q-11 -31 -19.5 -60.5t-17.5 -61.5q21 0 41.5 -0.5t41.5 0.5q19 2 37 3.5t36 1.5q4 0 9.5 -3.5t7.5 -7.5q4 -13 8.5 -26.5t7.5 -27.5
q1 -3 -0.5 -8t-1.5 -8q-14 2 -26.5 3t-24.5 3q-6 1 -13 3t-12 4q-2 1 -3.5 2t-3.5 1q-26 -6 -49.5 1t-46.5 16q-13 5 -21.5 -0.5t-10.5 -19.5q-6 -26 -12.5 -53.5t-14.5 -54.5q-5 -17 -9.5 -34t-9.5 -34q-5 -11 -13 -39.5t-17 -61t-17.5 -61.5t-12.5 -40q-5 -21 -9 -42.5
t-9 -43.5q-5 -23 -13 -43.5t-16 -42.5q-4 -6 -11 -10t-14 -6q-17 -3 -32.5 -4t-31.5 -1q-4 0 -9 -0.5t-8.5 0.5t-5 5t1.5 12q-7 15 -6 30t5.5 29t10.5 28.5t9 29.5q7 24 18.5 66t24.5 87t25.5 86.5t20.5 66.5q14 48 27 94.5t27 94.5q17 56 34 110.5t37 110.5q23 69 52 138
q2 10 4 21t6 25q23 -14 43 -27.5t41 -27.5q2 3 6.5 6t6.5 5q14 25 34.5 50t40.5 45q22 23 46 44q20 20 38.5 22.5t47.5 -8.5q24 -10 44 -23t35 -35q12 -20 16.5 -41t2.5 -45q-3 -5 -0.5 -9t1.5 -8z" />
    <glyph glyph-name="g" unicode="g" horiz-adv-x="512" 
d="M-26 -17q13 -12 28 -20t23 -27q8 -23 5.5 -44t-7.5 -43q-8 -37 -17.5 -73.5t-20.5 -73.5q-2 -8 -3.5 -16t-3.5 -16q-4 -19 3 -33t21 -25q16 -13 36 -17t41 5q8 4 19 8.5t13 19.5q1 6 8 12t12 11q2 2 4.5 5t3.5 5q15 54 34 104.5t30 105.5q7 35 18 70t21 70q8 29 15 57
t13 57q2 10 5 20t5 21q-15 -2 -19.5 -9.5t-9.5 -16.5q-8 -13 -20.5 -23.5t-25.5 -21.5q-9 -9 -18.5 -17t-20.5 -12q-17 -6 -36 -4.5t-37.5 8.5t-34 18.5t-23.5 26.5q-15 18 -21 37.5t-7 36t0.5 27t2.5 11.5q8 21 14 42t14 41q2 7 6.5 12.5t9.5 13.5v12.5t3 15.5q11 31 21 63
t24 61q23 48 48 95.5t50 95.5q5 8 13 14.5t16 14.5t13 17t13 17q11 9 22.5 17t24.5 10t24.5 -4.5t25.5 -9.5q17 -4 29.5 -13.5t21.5 -21.5q8 -9 12.5 -21t6.5 -23q2 -14 7.5 -22t19.5 -15q14 -8 27 -19t26 -24q11 -10 9.5 -24t-5.5 -27q-6 -29 -14.5 -57t-16.5 -57
q-2 -11 -3.5 -21t-6.5 -19q-11 -17 -12.5 -35.5t-8.5 -37.5q-11 -29 -16.5 -59t-11.5 -60q-8 -29 -16 -59l-16 -60q-6 -23 -11 -46.5t-11 -46.5q-8 -34 -18 -66.5t-18 -65.5q-7 -23 -9.5 -46.5t-7.5 -46.5q0 -5 -1 -10.5t-4 -9.5q-7 -17 -16.5 -32.5t-24.5 -29.5
q-23 -20 -42.5 -43.5t-42.5 -43.5q-11 -11 -23 -19t-27 -12q-22 -4 -45 -4.5t-47 -0.5q-5 0 -9.5 4.5t-9.5 7.5q-11 10 -21.5 19.5t-21.5 17.5q-39 26 -60.5 62.5t-17.5 84.5q4 44 17 86.5t33 82.5q8 14 14 29.5t14 31.5zM114 83q15 3 31 4.5t26 9.5q20 14 38 31.5t34 37.5
q14 19 25.5 39t21.5 41q13 22 22.5 46t17.5 47q17 53 33.5 105t30.5 104q4 11 8.5 22.5t7.5 23t2.5 23.5t-6.5 24q-2 2 -0.5 5.5t1.5 6.5q1 7 2.5 12.5t-0.5 10.5q-6 11 -13 22l-14 22q-10 15 -25 17.5t-29 -8.5q-28 -22 -49 -47.5t-19 -64.5q1 -22 -5.5 -41t-17.5 -38
q-6 -12 -12.5 -24.5t-11.5 -25.5q-14 -38 -27.5 -75.5t-27.5 -75.5q-2 -4 -4 -9t-3 -9q-3 -14 -7 -26t-6 -25q-2 -5 -1 -9.5t-1 -7.5q-8 -14 -13.5 -27.5t-0.5 -30.5q0 -1 -0.5 -2t-0.5 -2q-5 -15 -8.5 -28t-5.5 -27q-1 -11 2 -23.5t5 -27.5z" />
    <glyph glyph-name="h" unicode="h" horiz-adv-x="502" 
d="M492 535q3 -23 -1 -44.5t-12 -44.5q-12 -37 -24.5 -75t-23.5 -76q-4 -18 -9 -35t-13 -34q-5 -9 -4.5 -20t-1.5 -20q-8 -26 -16 -51.5t-16 -51.5q-5 -12 -9 -25t-7 -26q-2 -17 -14 -25.5t-29 -3.5q-14 5 -29 7t-31 4q-10 2 -14.5 5t-2.5 13q6 23 11.5 47t12.5 47
q14 48 29 96t31 97q20 62 40 123t39 124q5 15 6.5 31t2.5 32q1 14 -10.5 27t-25.5 15q-2 -1 -4.5 -2t-4.5 -3q0 -1 -0.5 -1t-0.5 -1q-2 -1 -3.5 -2t-3.5 -2q-1 0 -2 -0.5t-2 -0.5q-20 -14 -44.5 -37t-45.5 -45q-25 -26 -49 -54q-2 -5 -4.5 -11t-4.5 -11q-17 -38 -27 -76
t-21 -77q-8 -23 -15 -46t-15 -46q-10 -35 -19 -69.5t-19 -70.5q-2 -10 -4 -19.5t-6 -20.5q-3 -7 -8 -11t-13 -1q-18 7 -34 13.5t-32 14.5q-10 4 -12 12.5t1 17.5q11 41 21 81.5t23 81.5q4 12 5 25t14 22q3 3 1.5 11.5t0.5 15.5q13 50 32 110t40 125.5t44 133.5t44.5 133.5
t41.5 125.5t35 110q2 6 3.5 12.5t3.5 17.5q13 -7 24 -13l22 -12q7 -4 11.5 -10t9.5 -11q19 -22 9 -48q-6 -17 -19 -56t-27.5 -83.5t-27.5 -84t-17 -56.5q-10 -32 -19 -64t-18 -65q-2 -5 -1.5 -11.5t0.5 -12.5h6q9 11 18 18.5t17 15.5q0 1 1 2v-1q14 13 26.5 20.5t22.5 12.5
q6 3 13 4.5t13 3.5q48 12 81 -19q17 -15 29.5 -31.5t17.5 -39.5q3 -13 7 -25t6 -26z" />
    <glyph glyph-name="i" unicode="i" horiz-adv-x="352" 
d="M217 785q22 -4 41 -12.5t32 -24.5q9 -11 20 -20t8 -25q0 -4 0.5 -8.5t-1.5 -7.5q-17 -56 -32.5 -111.5t-33.5 -109.5q-17 -51 -30 -100.5t-38 -95.5q-5 -13 -7 -27.5t-7 -29.5q-8 -31 -17 -62.5t-17 -64.5q-5 -17 -10.5 -21.5t-22.5 -2.5t-35 5t-35 9q-12 1 -18 12.5
t-4 24.5q6 25 11.5 47.5t13.5 42.5q18 63 38.5 123.5t40.5 122.5q24 76 48 152.5t47 155.5q5 12 8 28zM312 1078q29 -5 51 -22.5t40 -41.5q3 -4 5 -13t-2 -16q-8 -26 -18.5 -49.5t-19.5 -49.5q-2 -6 -3 -12.5t-5 -16.5q-13 9 -22.5 16.5t-19.5 14.5q-11 8 -21 17t-18 20
q-22 17 -8 45q12 26 21 52.5t20 55.5z" />
    <glyph glyph-name="j" unicode="j" horiz-adv-x="182" 
d="M113 779q28 2 50.5 -10.5t41.5 -32.5q5 -3 7.5 -12.5t2.5 -15.5l-7 -28t-8.5 -33t-8.5 -33.5t-7 -28.5q-2 -5 -2 -11t-3 -16q-11 5 -19.5 14t-16.5 18q-13 12 -21.5 25t-17.5 20q-8 9 -11.5 17.5t1.5 23.5q5 25 9.5 50.5t9.5 52.5zM-373 -82q14 5 27 10l26 10
q18 5 35.5 9t31.5 2q-8 -12 -14 -20t-9 -19q-8 -16 -17 -54.5t-15 -84.5q2 -3 1.5 -6t0.5 -6q8 -4 12 -14q1 -14 2 -29t14 -25q7 -9 19 -13t28 1q6 1 12.5 6.5t10.5 7.5q2 8 1.5 12.5t1.5 9.5q10 26 17 51.5t17 50.5q11 32 21 61t21 59q6 17 9 34t9 32q6 20 14.5 40t14.5 42
q4 15 12.5 44t19 66t22 77t22 76t18.5 65t12 43q7 27 10.5 43.5t11.5 41.5v1q4 16 18 14q11 3 21.5 -2.5t18.5 -15t14.5 -20.5t9.5 -17q12 -14 13 -23t-3 -20q-6 -23 -9 -34t-5.5 -19t-6 -18.5t-11.5 -32.5q-5 -17 -14 -49t-20 -71.5t-23.5 -83t-24 -83t-21.5 -72t-15 -49.5
q-14 -42 -27 -83.5t-30 -86.5q-19 -51 -86 -89q-23 -14 -44.5 -17.5t-46.5 -8.5q-20 -2 -40 -1.5t-40 -0.5q-23 -2 -46.5 -6t-39.5 6q-15 10 -25.5 20.5t-8.5 27.5q2 15 2.5 22t1 12.5t1 13t3.5 23.5q5 17 11.5 42t22.5 66q4 11 12 18.5t19 13.5z" />
    <glyph glyph-name="k" unicode="k" horiz-adv-x="470" 
d="M200 476q26 5 49 0t43 -16q30 -15 52 -38t29 -56q6 -32 -2 -64q-10 -43 -20.5 -84t-21.5 -84q-4 -17 -8 -33t-9 -35q-13 5 -25 5t-23 12q-7 7 -17 9t-20 7q-14 6 -18 14.5t-1 23.5q27 90 51 180q12 50 17 98q1 10 -3.5 19t-12.5 14t-18 7t-20 -1q-2 0 -3 -1t-3 -2
q-19 -2 -24 -14.5t-10 -29.5q-14 -54 -29 -107t-29 -107q-5 -17 -8 -35.5t-8 -36.5q-6 -26 -16 -50q-2 -5 -8.5 -8t-11.5 -4q-15 -3 -29 -3h-28q-11 0 -17.5 6.5t-8.5 17.5q-3 15 1 31q7 33 15 64t16 65q10 38 21 75t22 75q14 48 26.5 96t28.5 95q10 34 28.5 93.5t40.5 131
l46 149.5t46.5 149.5t41 130t28.5 92.5q0 4 1 7.5t1 6.5q13 3 27 -3t26.5 -15.5t21.5 -21.5t12 -22q3 -5 2.5 -11.5t-2.5 -12.5q-5 -17 -17.5 -58.5t-29 -96t-35 -115t-35 -115t-29 -96t-16.5 -58.5q-4 -6 -1 -14q10 10 18 19t17 16q14 12 28.5 23t30.5 20q14 8 31.5 7.5
t35.5 -6t33.5 -15.5t24.5 -22q21 -24 24 -50t-5 -54q-11 -38 -21.5 -74t-21.5 -74q-7 -23 -14.5 -25.5t-27.5 14.5q-9 8 -19.5 15t-21.5 15q-17 11 -19.5 22.5t3.5 29.5q11 26 20.5 53.5t18.5 56.5q5 16 9.5 33.5t9.5 36.5q7 18 -15 18q-17 -1 -31.5 -8.5t-27.5 -18.5
q-11 -10 -20.5 -19.5t-21.5 -18.5q-35 -28 -56.5 -62.5t-33.5 -75.5q-6 -20 -11.5 -39.5t-12.5 -42.5z" />
    <glyph glyph-name="l" unicode="l" horiz-adv-x="288" 
d="M263 1061q18 -3 34 -14t27.5 -26.5t17.5 -34t5 -37.5q0 -29 -9 -56t-17 -55q-14 -44 -29.5 -87t-30.5 -88q-9 -29 -17.5 -58t-16.5 -58l-20 -72t-19 -73q-8 -30 -15 -61.5t-15 -62.5q-5 -23 -9.5 -46t-12.5 -46q-3 -10 -8 -32t-12 -46t-15 -44.5t-17 -26.5q-7 -5 -19 5
t-24 26t-22.5 33.5t-14.5 27.5q8 29 15.5 57.5t14.5 56.5q11 42 20 83t20 82q7 26 14 51.5t15 50.5q20 63 39.5 126t39.5 126q18 54 37.5 106t39.5 106q8 21 10.5 42.5t-6.5 44.5z" />
    <glyph glyph-name="m" unicode="m" horiz-adv-x="725" 
d="M331 154q-4 -14 -12 -19t-26 -3q-20 1 -25 26q1 3 -3 6t-5 8q-2 6 -4 12.5t0 12.5q5 27 11.5 53.5t14.5 53.5q23 78 47 154t49 151q7 25 16.5 49.5t17.5 48.5q4 11 6 23.5t4 23.5q1 2 -1.5 7t-4.5 6q-13 3 -26 5.5t-27 -5.5q-14 -7 -29 -10.5t-29 -7.5q-5 -2 -8 -5t-6 -5
q-20 -17 -33 -41t-22 -47q-19 -57 -38 -113t-36 -113q-12 -41 -21.5 -83t-20.5 -85q-6 -23 -13 -46.5t-15 -48.5q-5 -17 -9 -35.5t-7 -36.5q-6 -19 -14 -24.5t-28 -3.5q-29 2 -55 7q-20 2 -17 24q6 29 10.5 56.5t11.5 55.5q19 69 36.5 136.5t38.5 134.5q18 62 38 122.5
t40 121.5q6 18 10 36l8 36q1 7 -3 15.5t-6 16.5q21 2 36.5 -4.5t28.5 -18t24 -25.5t23 -26q14 8 27.5 14.5t27.5 15.5q20 16 42.5 18t46.5 0q32 -2 56 -18.5t47 -38.5q4 -5 8 -6.5t9 3.5q17 21 41 29t48.5 6.5t48.5 -11.5t41 -26q5 -5 9 -10t9 -9q23 -20 25 -45t-2 -50
q-7 -44 -19.5 -84.5t-29.5 -81.5q-9 -27 -16.5 -53.5t-16.5 -52.5q-12 -37 -23.5 -73.5t-22.5 -73.5l-16 -54t-17 -53q-3 -14 -11 -29q-10 -16 -26 -12q-15 5 -31.5 9.5t-31.5 10.5q-11 3 -15.5 12.5t-2.5 21.5q14 49 28 97.5t29 96.5q14 47 29 92t32 92q16 51 32 102.5
t31 105.5q2 4 2.5 8t1.5 9q1 20 -6.5 27t-28.5 10q-23 3 -38 -9t-29 -25q-12 -11 -17 -24t-9 -29q-5 -23 -14 -46t-17 -46q-15 -48 -29 -92t-30 -90q-5 -15 -11 -29.5t-11 -30.5q-7 -22 -12.5 -45.5t-11.5 -45.5q-5 -20 -10.5 -39.5t-11.5 -36.5q-8 -25 -31 -7z" />
    <glyph glyph-name="n" unicode="n" horiz-adv-x="519" 
d="M134 831q33 -10 61 -27t42 -52q12 8 21.5 15.5t19.5 15.5q29 25 62 35t67 1q85 -20 112 -102q8 -22 14.5 -44.5t-0.5 -45.5q-8 -29 -15.5 -57t-16.5 -57q-11 -35 -24 -69.5t-26 -69.5q-12 -42 -23.5 -85t-23.5 -85q-8 -26 -17.5 -50t-17.5 -50q-3 -14 -19 -12
q-11 2 -22 3t-22 5q-5 0 -9 5.5t-6 10.5q-14 28 -13 56t10 56q26 81 52 160t52 159q11 38 25.5 76t27.5 76q7 20 4 39t-10 38q1 4 -4.5 8t-9.5 3q-37 10 -68.5 1t-60.5 -34q-5 -7 -12 -11t-15 -9q-20 -11 -25.5 -28.5t-6.5 -37.5q0 -23 -6 -46.5t-14 -46.5
q-5 -15 -9.5 -30.5t-9.5 -32.5q-13 -41 -25.5 -81.5t-25.5 -82.5q-11 -33 -19.5 -67t-18.5 -67q-5 -19 -11 -37.5t-12 -35.5q-5 -18 -10.5 -35.5t-13.5 -31.5q-7 -15 -25 -17q-11 -1 -24 0.5t-25 3.5q-19 2 -27.5 17.5t-2.5 38.5q5 16 12.5 30.5t13.5 30.5q2 5 1 9.5t0 8.5
q8 26 14.5 52t14.5 53q19 58 37 116t36 118q15 48 29 95.5t27 95.5q5 16 6 32t-1 32q1 10 -5 19.5t-9 21.5z" />
    <glyph glyph-name="o" unicode="o" horiz-adv-x="429" 
d="M168 827q13 -6 22.5 -10t18.5 -9q16 -11 31 -1q9 10 18 16t18 11q38 17 72 10.5t62 -28.5q49 -37 80 -87q12 -20 10.5 -37.5t-8.5 -36.5q-11 -37 -23.5 -73.5t-25.5 -73.5q-12 -36 -24 -73.5t-23 -75.5q-11 -35 -20 -71.5t-19 -72.5q-3 -11 -5.5 -21.5t-13.5 -20.5
q-7 -8 -11 -20t-13 -22q-17 -25 -40 -42.5t-52 -25.5q-18 -5 -35.5 -3.5t-29.5 15.5q-8 10 -18.5 14.5t-21.5 9.5q-27 14 -47 32.5t-34 45.5q-5 8 -8.5 15.5t-13.5 13.5q-11 6 -13 21t3 29q11 43 22 87t26 87q22 69 46 136.5t46 135.5q8 24 13.5 48t12.5 48q1 6 0.5 12.5
t-2.5 16.5zM150 113q11 5 21 9t18 9q13 10 25 22.5t23 24.5q14 13 20.5 31.5t7.5 38.5q-1 32 6.5 62t18.5 60q2 4 3.5 8.5t0.5 7.5q-6 13 -1.5 23.5t9.5 21.5q23 70 47.5 138.5t48.5 137.5q2 6 3.5 14t-1.5 13q-8 18 -3 32q3 8 0 14.5t-14 8.5q-11 0 -17 8q-15 13 -30 9
q-11 -5 -22.5 -9t-22.5 -9q-8 -3 -16 -7t-14 -9t-9 -13t0 -19q0 -5 -1.5 -9t-2.5 -8q-6 -25 -12.5 -48t-13.5 -46q-12 -37 -25 -74t-24 -75q-9 -24 -16.5 -49t-15.5 -51q-8 -27 -16.5 -54.5t-16.5 -53.5q-2 -8 -3 -17.5t-3 -17.5q-2 -6 -3.5 -11.5t-4.5 -11.5
q-2 -5 -6.5 -10.5t-4.5 -10.5q4 -19 12.5 -36t24.5 -30q8 -4 15.5 -6.5t14.5 -7.5z" />
    <glyph glyph-name="q" unicode="q" horiz-adv-x="535" 
d="M219 778q14 24 33 39t44 23q42 14 80.5 8t73.5 -35q26 -23 42 -49.5t26 -61.5q3 -8 6.5 -17t7.5 -18q6 -11 8.5 -20.5t-2.5 -23.5q-14 -42 -27 -82t-27 -83q-21 -68 -40.5 -134.5t-37.5 -135.5q-8 -28 -15 -55.5t-15 -56.5q-2 -8 -6 -12.5t-13 -6.5q-20 -3 -27 -12.5
t-3 -29.5l4 -20t6 -18q12 -29 45 -27q29 0 46 26q7 18 18 28q1 5 5 10t7 3q5 0 10 -5t7 -9q-2 -15 -2 -31.5t-6 -30.5q-10 -32 -33.5 -37.5t-52.5 3.5q-69 21 -117 71q-7 7 -12 6t-13 -4q-16 -6 -33 -12.5t-35 -9.5q-17 -2 -35 4t-32 19q-19 15 -36.5 30.5t-28.5 38.5
q-8 14 -11.5 29t-8.5 29q-2 5 -5.5 10t-8.5 7q-18 10 -20 39q-2 26 4.5 52.5t13.5 53.5q14 42 29 84t29 85q26 80 50 161.5t49 162.5q5 12 2 23q0 11 4.5 14t12.5 -3q11 -2 20 -8t20 -11zM330 309q2 7 3.5 13t5.5 11q20 67 38.5 134t37.5 135q12 36 18.5 73t10.5 75
q4 24 -11 40.5t-39 14.5q-31 -1 -59.5 -9.5t-51.5 -34.5q-10 -9 -18.5 -22t-10.5 -27q-8 -28 -13.5 -56.5t-13.5 -56.5q-11 -35 -22.5 -68.5t-21.5 -68.5q-10 -27 -18 -56l-16 -58q-8 -22 -16 -43.5t-17 -41.5q-14 -35 -27 -69t-13 -72q-1 -36 10 -68t38 -55q15 -12 31 -10
q21 2 37.5 14.5t31.5 28.5q2 4 2.5 9.5t-1.5 8.5q-16 53 -10 105.5t18 104.5q3 17 5 33.5t0.5 32.5t-8 30.5t-20.5 27.5l-1 5q22 0 39 -6.5t31 -18t26.5 -26t24.5 -29.5z" />
    <glyph glyph-name="p" unicode="p" horiz-adv-x="487" 
d="M518 760q13 -19 11.5 -36.5t-8.5 -36.5q-10 -38 -21.5 -75.5t-22.5 -75.5l-22 -76t-21 -76q-9 -38 -18 -74.5t-18 -73.5q-3 -12 -4.5 -22.5t-11.5 -19.5q-8 -10 -11.5 -22t-10.5 -23q-18 -27 -40.5 -46.5t-51.5 -31.5q-17 -5 -35 -5t-31 14q-8 10 -19 12.5t-22 7.5
q-16 6 -29.5 14t-24.5 19q-8 -25 -13.5 -51t-12.5 -50q-4 -19 -6 -29.5t-3.5 -19t-3 -19t-4.5 -28.5q-8 -31 -15 -63l-14 -64q-2 -12 -3.5 -20.5t-4 -16t-5 -15.5t-5.5 -20q-5 -23 -11.5 -45t-21.5 -41q-12 -16 -32 -27q-1 -4 -1.5 -9t-2 -8.5t-5 -6t-11.5 -2.5
q-23 3 -27 10t1 33q-13 -2 -15.5 5t0.5 16q6 30 11.5 59t11.5 57q5 22 9.5 40t8.5 35t8.5 35t9.5 40q3 13 4 17.5t1.5 7.5t1.5 8t4 18q18 66 35 131t35 130q14 47 27.5 92t28.5 91q3 16 8 31.5t10 29.5q2 8 4.5 18.5t5 20.5t5.5 16t6 5q11 40 23 80t26 79q7 23 11 48t9 48
q1 5 0 12t-1 18q11 -4 21.5 -7.5t21.5 -8.5q16 -10 29 6q9 8 18 14l18 12q38 22 71.5 17.5t63.5 -23.5q46 -30 81 -79zM429 730q1 6 1 14t-2 14q-10 14 -4 30q4 19 -16 21q-10 2 -15 8q-8 5 -15 7t-16 -2q-10 -5 -22 -9.5t-24 -11.5q-7 -4 -15 -8.5t-14 -10t-8.5 -13.5
t0.5 -20q1 -7 -3 -17q-5 -24 -11 -48l-12 -48q-13 -38 -24 -75.5t-22 -75.5q-7 -20 -12.5 -40t-10.5 -41q-4 -17 -8.5 -34.5t-9.5 -36.5q-2 -5 -4.5 -9t-1.5 -9q-4 -12 -7 -23t-5 -22q-3 -9 -4 -18.5t-2 -17.5q0 -6 -2.5 -11.5t-4.5 -10.5t-7 -12t-3 -12q3 -18 12.5 -34
t27.5 -24q6 -5 14 -7t17 -5q9 6 18.5 10t17.5 10q14 11 24 24t21 25q31 31 28 72q0 32 6 63.5t16 63.5q2 4 3.5 7.5t-0.5 7.5q-7 11 -2.5 22.5t7.5 22.5q25 72 48 142.5t46 141.5z" />
    <glyph glyph-name="r" unicode="r" horiz-adv-x="463" 
d="M224 739q3 3 5.5 5t3.5 6q17 23 38.5 41t49.5 28q11 2 21 8q18 11 38 13.5t39.5 -2t36.5 -14t29 -22.5q5 -7 8.5 -9.5t8.5 -6.5q17 -18 17.5 -39.5t-11.5 -45.5q-11 -26 -22 -53.5t-19 -51.5q-11 -20 -20 -40t-17 -42q-10 -21 -17.5 -43t-14.5 -45q-5 -11 -9.5 -13
t-13.5 3l-26 8t-27 11q-28 9 -17 40q8 26 17 51.5t20 49.5q20 51 41 101.5t41 102.5q5 6 6.5 15t-3.5 14q-5 8 -15 7t-21 -4q-11 -6 -24.5 -10t-26.5 -9q-5 -2 -10 -4.5t-11 -4.5q-7 -5 -11.5 -9t-10.5 -7q-19 -9 -28 -24t-17 -33q-5 -14 -13.5 -26t-14.5 -25
q-8 -19 -12.5 -38t-10.5 -38q-26 -77 -49.5 -153.5t-47.5 -154.5q-7 -24 -15.5 -49t-17.5 -51q-11 -26 -22.5 -49.5t-24.5 -46.5q-2 -5 -6 -11t-13 -4q-1 0 -2 -1l-2 -2q-11 -15 -24.5 -13t-24.5 7q-13 4 -15 12.5t3 22.5q19 64 38 127t37 126q19 57 38 113t32 114
q13 45 22 91.5t18 93.5q1 4 2 7.5t-1 8.5q-2 13 1 16.5t14 1.5q21 -3 39.5 -10t33.5 -21q5 -2 6.5 -7.5t3.5 -12.5z" />
    <glyph glyph-name="s" unicode="s" horiz-adv-x="344" 
d="M214 357q-10 8 -17.5 7.5t-16.5 -8.5q-11 -8 -22 -11t-17 -2q-9 -5 -13.5 -7t-9.5 -4t-8.5 -2.5t-6.5 -2.5q-5 0 -11.5 -4t-11.5 -2q-14 5 -26.5 11.5t-23.5 21.5q-8 11 -3 28q16 54 32 104.5t36 102.5q17 37 31.5 73t29.5 74q5 10 12.5 19.5t15.5 19.5q4 3 3 8t4 7
q10 12 19.5 24t23.5 23q7 7 18 9.5t21 7.5q27 10 43.5 0t31.5 -25q8 -5 14.5 -8.5t14.5 -5.5q20 -3 34 -13t25 -25q5 -3 4 -10t-3 -15q-4 -17 -10.5 -34.5t-13.5 -34.5q-5 -16 -13.5 -33.5t-17.5 -34.5q-3 -16 -9 -31.5t-12 -31.5q-5 -21 -11 -40t-14 -39q-8 -21 -27 -16
q-11 1 -22 3.5t-19 6.5q-16 4 -11 26q11 31 19 64t19 67q13 35 28 71t31 74q5 18 0 33t-24 26q-2 -1 -3.5 -0.5t-2.5 0.5q-19 -2 -35.5 -5t-32.5 -18q-11 -10 -16 -20.5t-15 -20.5q-5 -8 -5.5 -12.5t0.5 -12.5q3 -6 0.5 -13.5t-4.5 -15.5q0 -3 -0.5 -4.5t1.5 -2.5
q2 -14 -0.5 -27.5t-7.5 -26.5t-11 -25.5t-9 -25.5q-5 -17 -12 -32.5t-12 -32.5q-13 -34 -25.5 -70.5t-24.5 -73.5q-2 -7 -3 -16t-5 -20q11 4 18 5.5t15 4.5q12 10 27 13t29 7q15 3 29 -0.5t27 -9.5q11 -3 19 -8.5t18 -10.5q3 -2 5.5 -8.5t2.5 -11.5q-3 -13 -5.5 -26.5
t-7.5 -27.5q-11 -32 -21 -65t-24 -65q-5 -17 -9.5 -34t-9.5 -32q-5 -17 -11.5 -33.5t-9.5 -32.5q-9 -23 -22 -37t-36 -20q-2 -1 -2.5 -2.5t-2.5 0.5q-11 -8 -14 -8t-7 7q-8 -3 -13 -6t-7 -1q-20 -1 -41.5 -0.5t-41.5 4.5q-12 4 -26 6t-27 5q-14 5 -17.5 10t3.5 23
q7 24 14 45.5t13 47.5q5 20 8.5 39t9.5 37q8 23 9.5 44t-0.5 41q5 3 9.5 3.5t9.5 0.5q11 -4 25.5 -8.5t26.5 -9.5q13 -4 11 -24q-1 -29 -5 -58t-12 -58q-6 -22 -11.5 -45.5t-11.5 -48.5q-2 -6 -3.5 -10t-3.5 -11q-2 -11 2.5 -17t16.5 1q11 4 18.5 9.5t14.5 16.5
q8 15 13.5 29.5t11.5 29.5q10 32 22 63.5t23 63.5q28 91 58 177z" />
    <glyph glyph-name="t" unicode="t" horiz-adv-x="598" 
d="M114 105q3 -3 6.5 -9.5t9.5 -8.5q11 -7 24.5 -4.5t27.5 9.5q17 10 28 25.5t22 30.5q2 5 7 7.5t10 6.5q3 2 6 5.5t3 6.5q35 87 67 174t57 176q5 19 8 38t8 37q2 10 1 19.5t0 20.5q16 1 29.5 -4.5t25.5 -14.5q10 -5 19.5 -12t17.5 -15q18 -15 14 -37q-12 -43 -21.5 -86.5
t-19.5 -86.5q-5 -22 -13.5 -43.5t-15.5 -42.5q-8 -18 -13.5 -36.5t-13.5 -36.5q-14 -35 -28 -68.5t-31 -66.5q-8 -18 -23.5 -27t-32.5 -17q-12 -5 -23 -5t-22 2t-21.5 5t-20.5 5q-20 5 -38 7.5t-36 9.5q-20 7 -38.5 12.5t-32.5 23.5q-20 22 -25.5 48.5t-1.5 53.5
q12 47 24 93t25 91q17 57 33 111.5t33 110.5q16 48 31 97.5t32 98.5q2 7 4 12.5t4 14.5q-24 0 -45.5 1t-43.5 -4q-15 -4 -28.5 -0.5t-22.5 17.5q-10 17 -18.5 35t-6.5 39q-2 10 1 12.5t12 2.5q35 -2 70 -1t70 0q4 1 8 0.5t7 0.5q13 -1 20.5 -0.5t12 3.5t7.5 10t7 20
q2 6 9.5 33.5t17.5 65.5t22 81.5t22 81.5t16.5 65.5t7.5 33.5q2 10 1.5 20t-0.5 20q1 3 1.5 6.5t2.5 5.5q0 2 4.5 2t6.5 -2q23 -11 40 -25t31 -33q4 -6 0 -33.5t-12.5 -65.5t-19.5 -81t-21 -81t-17.5 -65.5t-8.5 -33.5q-3 -16 -3.5 -24.5t2.5 -12.5t11.5 -5t24.5 -1
q43 -5 86 -9.5t87 -12.5q6 -1 12.5 -9t8.5 -16q5 -10 8.5 -21t6.5 -21q3 -21 -16 -17q-6 2 -12.5 3t-9.5 -1q-8 -4 -15.5 -4t-15 1t-15 2.5t-14.5 1.5q-13 0 -26 -0.5t-25 -1.5q-14 1 -29 3t-29 3q-14 2 -26 2.5t-23 2.5q-14 1 -20 -4t-9 -15q-10 -25 -19.5 -50t-17.5 -51
q-15 -46 -29.5 -92.5t-29.5 -92.5q-7 -21 -11.5 -44t-9.5 -46l-14 -34t-12 -34q-9 -33 -15.5 -64.5t-14.5 -63.5q-11 -29 -18 -56.5t-15 -56.5q-2 -4 -4.5 -8.5t-7.5 -12.5z" />
    <glyph glyph-name="u" unicode="u" horiz-adv-x="501" 
d="M449 767q7 -1 13.5 -1.5t14.5 -2.5q11 -4 23.5 -9.5t24.5 -13.5q17 -11 20.5 -25t-4.5 -35q-8 -23 -15.5 -45t-13.5 -44q-16 -42 -31 -84t-31 -85q-17 -49 -34.5 -96.5t-33.5 -95.5q-4 -17 -10 -33t-11 -33q-3 -23 -14 -46t-24 -43q-5 -8 -12 -14.5t-14 -14.5
q-17 3 -37 7.5t-33 19.5q-11 8 -19.5 7t-21.5 -10q-17 -9 -37 -14q-26 -2 -53.5 -2.5t-53.5 7.5q-8 3 -16 7t-18 8q-62 45 -30 137q6 17 9 35t8 35q4 19 10.5 38.5t14.5 39.5q0 8 2 16l4 16q8 23 18 46.5t19 47.5q13 38 26 75t24 75q11 29 19.5 52.5t16.5 52.5q3 14 6 22.5
t3 20.5q-5 3 -5 6t-5 12q6 1 8.5 3t5.5 1q14 -3 23 -3.5t16.5 -2t14 -6.5t15.5 -18q12 -17 15 -34.5t1.5 -35.5t-6.5 -37t-11 -38q-10 -35 -23.5 -70t-25.5 -73q-13 -34 -26.5 -68.5t-27.5 -70.5q-12 -35 -24 -71.5t-25 -73.5q-5 -21 -9.5 -44t-8.5 -45q0 -6 -4 -8
q-7 -11 -3.5 -21t17.5 -11q19 -2 36.5 -1t34.5 9q5 5 8 4q12 0 21 4t16.5 11t14 14.5t14.5 13.5q12 10 19 22t11.5 25t7.5 25.5t8 24.5q32 83 60.5 166.5t60.5 168.5q16 42 31 84.5t30 84.5q3 8 4 16t2 19z" />
    <glyph glyph-name="v" unicode="v" horiz-adv-x="552" 
d="M57 767q18 8 27.5 3t18.5 -10q27 -12 41 -33.5t9 -58.5q-5 -30 -5.5 -59t-5.5 -58q-6 -40 -15 -79.5t-17 -78.5q-5 -22 -6.5 -43t-5.5 -43q-3 -20 -7 -37.5t-8 -37.5q-8 -61 -3 -120q1 -12 2 -18.5t5 -8t12.5 1t23.5 7.5q31 9 50.5 30t31.5 51q18 39 36.5 78t44.5 78
q16 25 28 51.5t25 53.5q31 63 59 125t57 125q5 10 7.5 20.5t7.5 21.5q3 11 7.5 21.5t8.5 21.5q3 10 5.5 16.5t4 12t2 12t0.5 17.5q10 -5 18 -6t14 -6q12 -8 22 -17.5t18 -23.5q7 -14 5.5 -27t-7.5 -29q-15 -43 -29.5 -84.5t-31.5 -84.5q-17 -44 -36.5 -86.5t-40.5 -87.5
q-8 -21 -21.5 -42.5t-23.5 -42.5q-22 -44 -42.5 -88.5t-40.5 -88.5q-6 -11 -14.5 -16t-13.5 -11q-6 -8 -9.5 -16.5t-12.5 -10.5q-8 -2 -17.5 -3t-14.5 3q-9 5 -14.5 13t-13.5 15q-5 4 -15 1q-17 -3 -32 -10q-5 -2 -11 -3.5t-11 -4.5q-13 -10 -25 -11.5t-23 2.5
q-53 14 -73.5 53.5t-20.5 97.5q2 47 10 93.5t16 94.5q8 35 13.5 68t10.5 68q8 48 16 96.5t16 98.5q2 4 0 8.5t-1 9.5q-2 4 -3 7.5t-2 8.5z" />
    <glyph glyph-name="d" unicode="d" horiz-adv-x="461" 
d="M117 91q3 12 16 16t46 5q-3 -6 -5 -13t-7 -9q-15 -10 -31.5 -19t-37.5 -7q-46 3 -82 30q-12 7 -14 21q-4 20 -8 41t-4 41q0 23 4 45.5t6 45.5q1 5 1 10t1 10q8 26 13.5 50.5t12.5 50.5q8 25 14 49.5t15 48.5q17 45 34.5 89t36.5 88q22 49 68 84q14 11 31 11.5t32 -3.5
q26 -5 48.5 -16t34.5 -39q1 -2 3 -3t5 -3q8 23 16 44t16 44q12 38 25 77.5t25 79.5q15 50 29 100.5t29 100.5q2 7 1.5 15t0.5 16q23 -7 42.5 -18.5t33.5 -30.5q13 -16 12 -35.5t-5 -38.5q-7 -36 -15.5 -70t-18.5 -69q-8 -32 -17.5 -63t-20.5 -63q-7 -23 -14 -46.5t-14 -46.5
q-6 -20 -13 -40.5t-14 -41.5q-4 -10 -8.5 -20t-7.5 -21q-5 -17 -8 -34.5t-8 -34.5q-2 -11 -6 -20q-11 -17 -12.5 -36.5t-7.5 -37.5l-3.5 -7t-3.5 -5q-1 -10 -2 -19t-3 -18q-8 -32 -15 -65.5t-15 -66.5q-8 -30 -14 -60t-13 -61q-8 -30 -13.5 -61t-13.5 -62q-1 -5 -6.5 -7.5
t-10.5 -4.5q-8 -4 -18 -5t-18 -5q-44 -20 -47 26q-1 20 1 40.5t4 40.5q0 7 1 14.5t-1 12.5q-1 4 -5 6.5t-7 4.5q-5 5 -10.5 7.5t-10.5 4.5q1 2 2 3.5t2 3.5q6 0 12.5 -1t16.5 -1q-5 8 -8.5 15t-7.5 14q2 5 6.5 11.5t4.5 11.5q-4 28 7.5 50t24.5 42q10 15 16 31t10 32.5
t7 33.5t8 33q10 34 17.5 68t15.5 69q2 6 2.5 11t-7.5 7q-14 4 -18 14t0 23q4 16 9 32t10 33q3 14 4.5 28t-6.5 29q-9 13 -16 14t-21 -8q-17 -13 -29 -30t-21 -36q-5 -12 -6.5 -25t-3.5 -27q-2 -11 -5 -21q0 -4 -1.5 -7t-0.5 -7q6 -32 -4.5 -60t-20.5 -57q-7 -26 -13.5 -50.5
t-14.5 -50.5q-5 -23 -11 -45.5t-13 -45.5q-5 -20 -10.5 -40.5t-10.5 -41.5q0 -2 -0.5 -4t-0.5 -4v-88q6 -1 12 -1.5t14 -1.5z" />
    <glyph glyph-name="w" unicode="w" 
d="M814 734q15 -9 21.5 -21.5t8 -26.5t-0.5 -28.5t-5 -28.5q-6 -35 -16 -68.5t-20 -67.5q-13 -41 -25 -81t-25 -82q-19 -51 -38.5 -100.5t-39.5 -99.5q-2 -5 -5 -11t-7 -11q-14 -38 -26.5 -54t-23.5 -21q-12 -5 -23 0l-16 57q-4 10 -7 21q-23 -11 -44 -21t-41 -22
q-41 -21 -82 -17q-15 2 -25 -2q-15 -4 -28 1t-27 10q-3 1 -4.5 4.5t-4.5 5.5q-24 -14 -58 49q-6 2 -10 0.5t-6.5 -4.5t-3.5 -7t-2 -6q-10 -26 -30 -35t-41 -14q-20 -4 -41 -4t-41 1q-23 1 -39.5 10.5t-30.5 23.5q-3 3 -4 5q-5 14 -11 28.5t-14 28.5q-12 25 -11.5 51t6.5 52
q18 66 34 131t37 131q15 48 33 94t35 94q7 21 11 43t7 45q6 27 -13 48q-2 2 -2.5 5.5t-1.5 6.5q4 1 7.5 2t5.5 0q26 -5 48.5 -18.5t35.5 -35.5q10 -17 12.5 -38.5t4.5 -42.5q3 -48 -13.5 -94t-33.5 -92q-15 -49 -30.5 -97t-31.5 -97q-11 -34 -20.5 -68t-20.5 -69
q0 -7 0.5 -14t-1.5 -14t-6.5 -13t-8.5 -14q-5 -4 -7.5 -8.5t-5.5 -7.5q-6 -6 -9 -13.5t-2 -15t5.5 -13.5t13.5 -8q13 -5 30.5 -7.5t35.5 -1t35 8.5t30 23q11 13 24.5 24t25.5 24q5 5 8 12l6 14q6 18 12.5 36.5t12.5 38.5q27 78 54 155.5t55 157.5q8 28 15.5 57.5t12.5 59.5
q11 44 -18 79q-1 2 -1.5 5t1.5 4q2 4 7 2q25 -5 48 -14.5t35 -28.5q11 -17 17.5 -38t10.5 -42q7 -40 -4 -79.5t-23 -78.5q-7 -17 -10.5 -33.5t-7.5 -33.5q-10 -26 -18.5 -52t-16.5 -52q-14 -43 -29 -85.5t-29 -84.5q-5 -11 -9.5 -23t-6.5 -23q-2 -23 7.5 -29t29.5 1
q3 1 5.5 3t4.5 2q29 -4 51 11t40 35q14 13 24 28.5t25 26.5q14 10 22 23t13.5 27t9.5 29t10 29q17 48 35 94t35 94q18 61 35 121.5t34 122.5q5 12 4 25.5t-1 27.5q2 0 6.5 -0.5t9.5 -2.5q14 -8 27.5 -16t27.5 -18z" />
    <glyph glyph-name="x" unicode="x" horiz-adv-x="539" 
d="M494 811q10 4 22.5 2.5t25 -6.5t22.5 -13.5t16 -18.5q-5 5 -12.5 4t-11.5 -3q-6 -2 -13 -10.5t-13.5 -17.5t-11.5 -16.5t-6 -7.5q-13 -21 -34 -51t-42 -58.5t-37.5 -51.5t-20.5 -31q-5 -6 -10 -15q-5 -8 -11 -18.5t-14 -23.5q3 -31 6 -61t5 -62q5 -49 7 -97.5t5 -98.5
q1 -16 5.5 -26t21.5 -10q5 0 9 -2.5t10 -4.5q-9 -5 -13.5 -9t-9.5 -6q-27 -13 -50 -15.5t-45 2.5q-20 5 -33.5 17t-11.5 39q0 6 -1.5 21t-3.5 37t-5 48.5t-6 55.5q-18 -29 -34.5 -55.5t-29.5 -48.5t-22 -37t-12 -21q-14 -27 -33.5 -39t-42.5 -17t-43 -2.5t-39 15.5
q-2 2 -5.5 6t-8.5 9q8 2 12.5 4.5t7.5 2.5q16 0 25.5 10t17.5 26q26 50 54 98.5t56 97.5q19 32 38 62t38 61q-2 13 -3.5 23.5t-2.5 18.5q-1 9 -2 15q0 8 -5 31t-12 51.5t-13.5 58.5t-8.5 51l-0.5 7.5t-2 16.5t-4.5 17.5t-8 10.5q-4 2 -11.5 3t-12.5 -4q11 10 25.5 18.5
t29 13.5t27.5 6.5t22 -2.5q20 -9 35.5 -23.5t22.5 -39.5q2 -7 3.5 -13.5t3.5 -13.5l20 -94l68 94l21 27q17 25 40.5 39.5t49.5 23.5z" />
    <glyph glyph-name="y" unicode="y" horiz-adv-x="424" 
d="M451 632q23 -9 31.5 -25t0.5 -44q-8 -29 -11.5 -59t-11.5 -59q-9 -35 -20.5 -70t-22.5 -70q-8 -29 -17.5 -58.5t-18.5 -59.5q-13 -42 -26.5 -84t-26.5 -85q-4 -14 -6.5 -28.5t-7.5 -29.5q-5 -20 -12 -38.5t-13 -37.5q-7 -22 -13 -41.5t-12 -39.5l-6 -12t-5 -12
q-31 -83 -62.5 -146.5t-57.5 -107.5q-31 -51 -59 -89q-5 -1 -9 -2t-9 -3q-21 -8 -41.5 -13t-40.5 -11q-12 -3 -24.5 -7t-24 -7t-22 -3.5t-19.5 3.5q-14 6 -25 13.5t-9 25.5q1 16 1.5 23t1 12.5t1 12.5t3.5 24q5 18 10.5 45t20.5 69q4 12 12 21t20 17q14 8 27 15.5t27 15.5
q17 8 34 15.5t32 8.5q-6 -11 -12.5 -21t-11.5 -20q-7 -19 -14 -59.5t-13 -85.5q0 -7 5 -12q2 -3 4.5 -5t2.5 -6q2 -16 3.5 -30t14.5 -22q1 0 1 -0.5t1 -0.5q21 16 37.5 42.5t27.5 52.5q13 30 22 63q8 40 14 80t17 79q18 77 38.5 152.5t40.5 152.5q5 18 10.5 36t10.5 36l2 8
l2 8q-1 0 -5 2q-7 -8 -13 -13.5t-10 -13.5q-15 -29 -39.5 -42t-52.5 -23q-19 -7 -34.5 -3.5t-30.5 11.5q-20 11 -37.5 25.5t-31.5 31.5q-17 23 -19 48t7 53q27 67 55 134t54 134q13 33 25 67t23 68q5 17 5.5 32.5t-8.5 29.5q-1 2 -1 5t-1 8q6 -2 11 -2t8 -2
q16 -12 32.5 -22.5t30.5 -24.5q5 -5 7.5 -13t3.5 -16q2 -26 -2.5 -52t-14.5 -52q-21 -56 -43 -110.5t-45 -109.5q-14 -37 -28 -73t-27 -74q-6 -15 -10 -33q-1 -4 2 -9t8 -9t11 -6t12 -1q27 3 56 12q5 2 10 6t10 9q18 19 35 37t35 36q17 18 27 38.5t19 41.5q18 48 35 95.5
t30 95.5q11 36 17 71t13 71q1 8 0.5 15t-1.5 15q21 3 39 -1t35 -12q2 0 3 -1t3 -1z" />
    <glyph glyph-name="z" unicode="z" horiz-adv-x="506" 
d="M197 268q-17 -50 -33 -98.5t-32 -97.5q-13 -35 -24.5 -70.5t-22.5 -71.5l-10 -34t-8 -32q-2 -11 3 -18t13 -12q9 -6 18.5 -1t15.5 18q6 14 7 27q12 25 22.5 50.5t21.5 50.5q12 32 27 64t36 65q5 8 12.5 15t17.5 10q17 4 34.5 8t34.5 8q5 1 8.5 -0.5t8.5 -2.5
q-19 -25 -30.5 -47.5t-20.5 -45.5q-8 -23 -17.5 -44t-17.5 -44q-11 -25 -20.5 -50t-18.5 -51q-5 -17 -12.5 -23t-26.5 -11q-17 -3 -32.5 -4.5t-30.5 -5.5q-26 -5 -48 -4.5t-45 0.5q-4 0 -6 3t-7 6q-10 -5 -13 -5t-8 6q-2 0 -2.5 1t-1.5 2q-18 9 -21 25.5t6 40.5
q7 20 12.5 37t12.5 37q5 17 10 35t12 35q11 37 22 73.5t25 74.5q9 31 26 56q2 6 9.5 13t12.5 10q14 6 26.5 10.5t24.5 8.5q17 6 35 10t30 -2q13 -5 26.5 -9t20.5 -13q5 -5 11 -7t15 -6q4 12 8 22t7 18l28 80t27 79q5 18 9.5 35.5t10.5 34.5q5 14 8 28.5t7.5 29t12 29
t19.5 29.5q1 2 1 3.5t1 3.5q5 9 8 17.5t11 16.5q7 8 11 13.5t3 11.5q-2 11 -0.5 23.5t-2.5 22.5q-6 18 -21 22t-32 9q-8 0 -9 -3q-26 -10 -42.5 -26t-21.5 -36q-11 -42 -22.5 -82t-24.5 -80q-10 -36 -24 -72.5t-28 -71.5q-5 -10 -11.5 -17t-16.5 -9q-27 -8 -52 -10
q-11 -2 -16 3t-2 16q7 21 14.5 42t14.5 42q5 19 12 37.5t10 35.5q7 20 11 37.5t10 36.5q5 20 11.5 39.5t14.5 36.5q3 17 18 28q22 16 44 26.5t43 14.5q10 1 19.5 4t18.5 8q13 7 27 14.5t26.5 12t24.5 4.5t22 -6q6 -7 15 -10t14 -10q5 -11 7.5 -25.5t4.5 -27.5q0 -4 -3 -9
t-3 -8q0 -12 1.5 -22t-2.5 -22q-9 -40 -21 -81.5t-21 -82.5q-15 -56 -34 -112t-41 -114q-5 -10 -10.5 -17.5t-16.5 -15.5q-18 -14 -37 -21.5t-37 -9.5q-5 -2 -9.5 1t-8.5 5q-6 1 -13 5q-5 2 -8 5.5t-8 6.5q-7 -1 -16.5 3.5t-14.5 14.5q-8 15 -33 4z" />
    <glyph glyph-name="a" unicode="a" horiz-adv-x="534" 
d="M444 714q0 10 2 11.5t13 1.5q22 0 37.5 -9t24.5 -24q6 -6 7 -11t1 -11q-11 -38 -17.5 -73.5t-18.5 -73.5l-39 -132q-23 -69 -44 -136t-42 -136q-11 -32 -21.5 -58.5t-19.5 -52.5q-11 -22 -26 -26.5t-37 -9.5q-27 0 -34 13t-2 43q11 32 22 63t20 63q5 26 11 52t17 53
q-4 -5 -5.5 -6t-8.5 -1q-15 -22 -31 -47t-32 -51q-5 -11 -6.5 -21.5t-6.5 -21.5q-5 -9 -14 -19.5t-15 -15.5q-31 -25 -66 -22t-72 29q-27 21 -33 47.5t4 57.5q17 63 40 130t44 136q6 21 14.5 41.5t19.5 42.5q17 42 37.5 78t47.5 68q54 87 139 34q21 -10 39 -24.5t39 -31.5z
M104 101l20 20q11 15 21 31t21 32q22 26 39 52t37 52l42 64t43 69q9 26 23 48t25 42q5 22 10.5 42.5t10.5 41.5q0 20 -3.5 38t-3.5 39q-3 10 -11.5 19t-19.5 14t-23.5 6t-22.5 -4q-11 -5 -20.5 -13.5t-14.5 -13.5q-20 -32 -36 -68t-26 -72q-5 -32 -13.5 -66.5t-14.5 -66.5
q-16 -48 -30.5 -94.5t-26.5 -94.5q-5 -26 -15.5 -53.5t-10.5 -63.5z" />
    <glyph glyph-name="b" unicode="b" horiz-adv-x="503" 
d="M313 654q11 7 20 12.5t19 9.5q9 3 19 4.5t19 -0.5q29 -6 50 -24t32 -44q12 -26 18 -40t7 -27.5t-3 -31.5t-13 -53q-7 -26 -16.5 -51t-19.5 -50q-15 -39 -28.5 -78.5t-27.5 -79.5q-10 -29 -19 -58.5t-18 -59.5q-9 -28 -44 -27q-3 0 -11 -2q-35 -7 -64.5 3.5t-56.5 33.5
q-7 6 -15.5 10.5t-17.5 9.5l-18 -57q-2 -7 -3.5 -13t-3.5 -13q-4 -19 -9 -29.5t-13.5 -15.5t-22 -7t-33.5 -5q-7 -2 -14 -1.5t-15 0.5q-4 33 3 63.5t15 60.5q8 32 16.5 64.5t17.5 64.5q16 56 31.5 111.5t32.5 111.5q10 33 21.5 66t22.5 66q4 11 7.5 20.5t6.5 20.5
q8 26 15.5 51t14.5 50q17 57 33 113t33 113q6 22 14 42.5t16 41.5q4 10 16 7q19 -4 33.5 -13t28.5 -21q21 -18 10 -41q-24 -51 -38 -105t-28 -109q-6 -22 -10.5 -44.5t-9.5 -49.5zM232 96h6q5 14 9.5 27t9.5 26q17 54 34 107.5t35 107.5q20 57 40.5 113.5t40.5 113.5
q5 12 4.5 26.5t-2.5 28.5q0 4 -4.5 9.5t-9.5 5.5q-16 2 -31 2t-29 -16q-18 -20 -32 -40.5t-21 -46.5q-11 -36 -24.5 -70.5t-24.5 -70.5q-17 -54 -31 -107t-31 -106q-6 -18 0.5 -27.5t14.5 -20.5q8 -10 16.5 -20t16.5 -20q4 -5 6.5 -11t6.5 -11z" />
    <glyph glyph-name="c" unicode="c" horiz-adv-x="502" 
d="M272 675q2 -7 -2.5 -17t-11.5 -18q-5 -5 -9 -12.5t-6 -14.5q-8 -29 -16.5 -57.5t-16.5 -57.5q-11 -42 -23.5 -82t-23.5 -81q-9 -30 -17.5 -61t-16.5 -61q-3 -11 -1.5 -21t9.5 -22q8 -11 14 -24.5t14 -27.5q6 -11 12 -13.5t16 5.5q37 22 51 65q11 32 19.5 64.5t18.5 65.5
q1 4 1.5 6.5t1.5 6.5q5 13 15.5 17t21.5 -4q24 -14 43 -28q16 -8 18.5 -13.5t-2.5 -19.5q-5 -24 -12.5 -46.5t-15.5 -45.5q-2 -8 -3.5 -15.5t-5.5 -15.5q-8 -11 -16 -23t-17 -24q-3 -4 -7.5 -6.5t-8.5 -5.5q-42 -29 -80.5 -23.5t-76.5 29.5q-12 4 -19 13q-8 8 -15 11t-19 -2
q-4 -3 -11 -1l-14 4q-19 4 -40 14q-11 5 -9 21q7 54 18.5 106t28.5 104q27 85 52 169t51 169q3 9 7 18t9 20q23 -4 42 -15.5t39 -22.5q10 14 17.5 26t16.5 23q3 4 8.5 5.5t10.5 4.5q2 3 3 8.5t5 9.5q5 4 10.5 4.5t12.5 1.5q2 1 4.5 0.5t4.5 1.5q11 8 24 7.5t24 -5.5
q20 -11 39.5 -21t36.5 -23q37 -31 22 -83q-10 -26 -20.5 -51.5t-28.5 -46.5q-7 -9 -13 -17.5t-14 -15.5q-5 -4 -12 -5t-12 1q-7 2 -14 6.5t-13 9.5q-8 7 -5 21q9 32 17.5 64t16.5 63q2 11 2.5 21.5t1.5 20.5q1 24 -9 28t-30 -4q-16 -6 -24.5 -10.5t-15 -10t-12.5 -14
t-16 -23.5q-5 -7 -11 -11.5t-13 -12.5z" />
    <glyph glyph-name="A" unicode="A" horiz-adv-x="824" 
d="M806 1131q15 -31 15.5 -61t-1.5 -60q-13 -60 -31.5 -115t-30.5 -111q-17 -41 -29.5 -77.5t-23.5 -73.5q-8 -19 -12 -41t-10 -40q-11 -29 -23 -59.5t-22 -60.5q-16 -66 -34 -136t-37 -137l-36 -145q-2 -17 -10 -24t-26 -7q-23 7 -47 9t-47 8q33 174 81.5 344t106.5 345
q-17 0 -30.5 -1t-26.5 -6q-42 -7 -84 -15t-86 -17q-8 -46 -22.5 -96.5t-29.5 -99.5t-28.5 -92.5t-19.5 -74.5q-8 -34 -20 -84.5t-23 -98.5q-13 -55 -28 -115q-50 -2 -87 1q-16 1 -30.5 3.5t-25 6.5t-15.5 9.5t-2 13.5q11 32 24.5 61t16.5 43q1 4 4.5 18.5t8.5 36t12 48.5
t15 57v2l1 1q0 7 2 13t4 14q17 42 28.5 78t21.5 72t21 73.5t29 82.5q11 29 23 63t26 69q20 57 41.5 111.5t40.5 102.5q14 42 26 73t19 45q13 26 27 52t29 49q20 29 39 48.5t36 20.5h33q22 7 43.5 6.5t44.5 -4.5q10 -2 18.5 -3.5t16.5 -5.5q12 -1 21 -5.5t17 -10.5
q29 -17 50.5 -42.5t35.5 -60.5zM677 955q17 42 25.5 84.5t7.5 91.5q-12 2 -18.5 5t-11 5.5t-10 5.5t-15.5 5q-11 2 -37 -1t-51 -7q-38 -54 -71 -101.5t-57.5 -91t-38 -85t-11.5 -81.5q12 2 25 4t25 4q41 6 83.5 8t84.5 9q8 0 13.5 2t10.5 13q11 31 24.5 65t21.5 65z" />
    <glyph glyph-name="B" unicode="B" horiz-adv-x="854" 
d="M104 -20q-9 5 -14.5 9.5t-11.5 6.5q-29 9 -60 15q-17 3 -12 21q9 32 17 65t19 65q34 112 67.5 223.5t69.5 223.5q26 79 56.5 156.5t59.5 156.5q26 72 50 144.5t51 148.5q31 -17 66 -33q5 -3 10.5 -6.5t7.5 -8.5q8 -15 18 -20t21.5 -3t23 7.5t23.5 11.5q27 14 55 25.5
t58 14.5q38 3 66.5 -11.5t54.5 -34.5q39 -30 47.5 -73t-0.5 -91q-6 -34 -16.5 -67t-22.5 -66q-20 -54 -40.5 -106t-40.5 -105q-8 -20 -13.5 -37.5t4.5 -38.5q9 -24 5 -51.5t-12 -54.5q-31 -91 -60.5 -182t-61.5 -182q-13 -37 -29 -73.5t-33 -73.5q-9 -19 -24.5 -31.5
t-38.5 -16.5q-17 -4 -33.5 -10.5t-33.5 -9.5q-26 -7 -47 -2q-55 11 -100.5 38.5t-83.5 65.5q-5 5 -12.5 8t-15.5 3q-5 -1 -11.5 -6t-12.5 -9q-3 -2 -5.5 -3.5t-4.5 -2.5zM336 -45q14 14 28.5 28t23.5 31q17 28 30.5 57t24.5 59q24 65 47 129.5t47 129.5l60 171
q-5 13 -23 19.5t-41.5 8.5t-48 2.5t-42.5 1.5q-20 2 -40 3.5t-40 0.5q-9 0 -20.5 1t-16.5 -13q-15 -39 -30 -77.5t-27 -77.5q-16 -52 -29.5 -104t-27.5 -105q-11 -38 -21.5 -76.5t-21.5 -77.5q-2 -9 -0.5 -15.5t10.5 -11.5q16 -9 29.5 -19.5t27.5 -21.5q11 -9 21.5 -19.5
t22.5 -19.5q13 -8 29 -12t28 8zM478 1023q-3 -8 -5 -13l-4 -10q-29 -82 -56.5 -163.5t-56.5 -163.5q-6 -15 -2 -20t18 -7q29 -2 62 -7t63 -3.5t55 13t39 42.5q12 29 23.5 58t23.5 58q20 48 41.5 95t39.5 95q11 26 17.5 53t13.5 53q2 8 0 15.5t-14 7.5q-30 0 -59 -6t-57 -23
q-26 -16 -51 -30.5t-50 -31.5q-10 -7 -18.5 -7t-22.5 -5z" />
    <glyph glyph-name="C" unicode="C" horiz-adv-x="713" 
d="M579 1045q-9 -6 -15 -9.5t-12 -7.5q4 6 7.5 12t8.5 9q11 8 12 19.5t-1 23.5q-2 23 -13.5 28t-32.5 -4q-37 -14 -60.5 -41.5t-42.5 -59.5q-23 -38 -44.5 -76.5t-41.5 -78.5q-12 -24 -19.5 -50.5t-15.5 -52.5q-9 -26 -18.5 -51.5t-18.5 -51.5q-8 -20 -14.5 -40t-14.5 -40
q-10 -23 -20 -45.5t-18 -45.5q-14 -43 -29 -80t-25 -81q-2 -7 -8.5 -37.5t-13.5 -66t-12 -67.5t-4 -41q0 -18 5 -38q5 -29 18 -53.5t38 -41.5q5 -3 13 -4.5t13 0.5q16 11 33 21.5t30 25.5q38 44 55.5 96t28.5 107q7 32 22 60t32 58q14 -11 26.5 -21.5t23.5 -22.5
q9 -11 16.5 -25t17.5 -25q18 -20 16.5 -43t-6.5 -45t-14 -42.5t-18 -40.5q-22 -44 -49.5 -81.5t-74.5 -56.5q-51 -19 -106 -14q-54 4 -102 23.5t-89 55.5q-8 8 -13.5 18.5t-10.5 22.5t-7.5 23t-5.5 24q0 4 -1 15t-1.5 22t-1.5 20t-1 10q-4 4 -4 20t2.5 38t6.5 46t7 44
t5 33.5t0 14.5q3 8 7.5 22t8.5 27.5t7 24t4 13.5q10 35 20.5 70.5t24.5 70.5q23 66 46.5 130t46.5 130q32 88 75 168.5t102 153.5q17 22 39.5 33t46.5 22q6 3 13.5 1t15.5 -4q103 -20 178 -89q17 -17 31 -38t25 -43q5 -10 4 -23.5t-3 -25.5q-2 -21 -9.5 -41t-16.5 -38.5
t-18 -37.5t-16 -39q-3 -12 -9 -23.5t-13 -22.5q-3 -5 -10.5 -9t-12.5 -2q-17 8 -33 16.5t-32 18.5q-14 9 -15 21.5t4 27.5q12 36 23.5 72t22.5 72q2 7 2.5 14.5t2.5 18.5zM431 279q8 17 3 23.5t-13 11.5q-2 1 -5 -1.5t-7 -4.5q5 -7 10 -13.5t12 -15.5z" />
    <glyph glyph-name="D" unicode="D" horiz-adv-x="773" 
d="M147 59q-2 -5 -3.5 -10t-3.5 -9q-7 -22 -17 -29t-30 0q-23 7 -43.5 16.5t-40.5 19.5q-14 8 -11.5 23t18.5 23l-3 1.5l-3 1.5t-3 1q0 8 -0.5 12t0.5 8q1 8 2.5 16.5t4.5 15.5q47 166 95.5 329.5t98.5 330.5q28 91 54.5 181.5t53.5 182.5q5 11 5 25q2 17 9 22t22 -4
q23 -13 44.5 -28.5t40.5 -33.5q10 -10 16.5 -9t17.5 7l40 20t40 17q30 9 56 3.5t49 -19.5q38 -23 63 -56t37.5 -72t12.5 -82t-12 -84q-18 -64 -40.5 -127t-40.5 -128q-18 -58 -32.5 -115.5t-31.5 -117.5q-12 -45 -25.5 -90.5t-22.5 -91.5q-8 -38 -22 -72.5t-31 -68.5
q-4 -8 -13.5 -14.5t-20.5 -11.5q-19 -11 -38 -21l-38 -20q-12 -5 -20 -5q-63 -18 -115.5 -2.5t-97.5 52.5q-5 3 -7.5 6t-5.5 5zM435 1082q-5 -18 -10.5 -41t-13.5 -47q-25 -89 -50.5 -177t-51.5 -177q-22 -78 -44 -154.5t-45 -152.5q-12 -45 -24.5 -88.5t-26.5 -88.5
q-9 -22 10 -36q16 -13 30 -24t28 -25q11 -11 20 -17.5t27 -2.5q15 2 26.5 7t18.5 21q2 2 3 3.5t3 3.5q23 20 38 44t24 52q17 57 33 114t32 115q23 77 43.5 153t43.5 151q20 63 43.5 123.5t45.5 123.5q12 36 18 73t-5 74q-3 11 -9 17t-20 4q-13 -2 -26 -4.5t-24 2.5
q-20 7 -36 -0.5t-33 -15.5q-15 -6 -31 -13t-37 -17z" />
    <glyph glyph-name="E" unicode="E" horiz-adv-x="951" 
d="M657 877q16 -23 5 -44.5t-43 -25.5q-43 -6 -85 -10l-84 -8q-26 -2 -50.5 -3t-50.5 -3q-18 -1 -23 -20q-12 -48 -28 -96t-31 -96q-11 -40 -21 -79t-20 -79q-14 -48 -27 -96.5t-25 -96.5q-2 -3 -1.5 -5.5t-0.5 -6.5q16 0 31 -0.5t29 0.5q62 0 122.5 1t121.5 0
q11 0 23.5 -6.5t17.5 -14.5q11 -23 22 -48t21 -50q7 -19 -15 -19q-35 1 -70.5 1t-70.5 1q-65 2 -131.5 -3t-132.5 -16q-16 -4 -22 2q-19 11 -39.5 12.5t-41.5 -0.5q-29 -2 -36.5 7.5t-2.5 38.5q14 60 28 120.5t31 120.5q32 118 64.5 235t68.5 235q31 103 65 203.5t66 203.5
q8 23 16 45.5t13 45.5q3 14 11.5 18.5t16.5 1.5q24 -7 46.5 -15t45.5 -16q5 -2 10.5 -4t10.5 -1q71 16 141.5 17.5t139.5 3.5q42 0 80 3q39 3 57 -25q15 -24 25.5 -50t13.5 -55q-1 -2 -6 -5q-5 5 -11 9.5t-13 10.5q-1 -2 -3.5 -4.5t-4.5 -5.5q2 -2 2.5 -4t2.5 -4
q-26 -1 -51.5 -2t-51.5 -2q-17 -1 -33.5 -0.5t-33.5 0.5q-35 -2 -70 -3t-70 -5q-29 -3 -57.5 -10t-57.5 -13q-2 -1 -4.5 -2t-4.5 -1q-14 -2 -21 -4t-11 -5.5t-6 -10t-5 -18.5q-18 -60 -36.5 -118.5t-35.5 -118.5l-6 -22.5t0.5 -10.5t10 -3t21.5 2l96 10l96 10q17 2 32 0.5
t31 -1.5q2 0 4.5 2.5t5.5 4.5z" />
    <glyph glyph-name="F" unicode="F" horiz-adv-x="978" 
d="M958 1227q15 -32 20.5 -67t-2.5 -52q-21 2 -42 4.5t-43 -0.5q-50 -9 -99 -11.5t-98.5 -1.5t-98.5 2.5t-98 0.5q-17 -2 -34.5 2.5t-37.5 9.5q-21 -71 -42 -142.5t-43 -144.5h83q11 1 23 2.5t24 2.5q10 0 12 -7q6 -10 12 -18.5t10 -18.5q3 -8 1 -14t-17 -6q-38 1 -75.5 -1
t-74.5 -2q-20 0 -28 -21q-17 -54 -33.5 -106.5t-36.5 -105.5q-30 -82 -48 -165t-36 -167q-7 -32 -16 -64l-18 -64q-2 -3 -7.5 -6.5t-10.5 -3.5q-20 1 -39.5 4t-39.5 6q-5 2 -9 8.5t-7 11.5q-7 18 -6.5 35t4.5 34.5t9.5 34.5t8.5 34q11 58 22.5 115t28.5 114q29 97 63 193
t66 193q29 89 57.5 177.5t56.5 178.5q9 23 16 46.5t15 46.5q3 14 10 15t15 -3q23 -10 40.5 -25.5t31.5 -35.5q4 -5 11 -9t15 -4h167.5t167.5 1q20 0 40 2t40 2q11 0 21.5 -3.5t21.5 -6.5h27z" />
    <glyph glyph-name="G" unicode="G" horiz-adv-x="656" 
d="M197 997q10 3 15 13t8.5 21.5t6 20t7.5 7.5q6 8 9 16.5t8 16.5q1 0 6.5 15.5t14.5 38t20 46.5t22 40q26 35 53 67.5t60 59.5q9 8 18 12.5t21 -1.5q15 -7 32 -8.5t31 -5.5q11 -2 20.5 -8t17.5 -9q5 -2 10.5 -2t10.5 -1q5 0 10 -5q17 -17 32 -33.5t32 -32.5
q16 -18 19 -38.5t-3 -42.5q-11 -33 -22 -65.5t-24 -63.5q-12 -29 -28 -56.5t-28 -56.5q-6 -14 -14.5 -18t-19.5 -2q-22 2 -39.5 13.5t-32.5 27.5q-5 6 -7 13t11 15q4 1 5 5t2 9q27 73 48 147q7 21 12.5 41.5t10.5 43.5q3 13 3 27t2 31q-11 -4 -20 -7t-15 -8
q-44 -38 -79 -83.5t-68 -93.5q-12 -20 -20 -39t-17 -39q-13 -36 -25.5 -71t-26.5 -70q-7 -22 -18 -41.5t-19 -39.5q-10 -26 -17.5 -55.5t-18.5 -57.5q-5 -20 -12 -40t-12 -39q-6 -19 -10.5 -36t-11.5 -33q-3 -13 -6.5 -23t-9.5 -20q-2 -5 -7.5 -10t-9.5 -10q2 -10 4.5 -21
t-8.5 -22l-1.5 -3t-2.5 -3q-2 -22 -5 -44.5t-11 -42.5q-5 -10 -6.5 -20t-1.5 -19.5t0.5 -19.5t-2.5 -19q0 -2 -1 -11.5t-1.5 -22t-0.5 -25t3 -19.5q3 -10 2 -21l-2 -22q1 -15 9 -26t19.5 -17t25.5 -6t28 8q32 16 51 43t36 56q17 27 28 56.5t19 59.5t14.5 61t13.5 61
q3 15 8 29.5t10 28.5q8 24 -14 30q-23 5 -40 18.5t-32 25.5q-5 2 -5.5 6.5t-1.5 4.5q11 8 18 13.5t17 9.5q6 3 12.5 2t14.5 -1q17 -3 32.5 -5.5t32.5 -5.5q3 0 8 2.5l9 4.5q7 0 11 -3q8 -5 18 -11t19 -11q9 -6 20 -7q47 -17 9 -63q2 -1 4 -1t1 0q-5 -33 -12.5 -65.5
t-15.5 -64.5q-10 -38 -20 -75.5t-23 -72.5q-8 -20 -17.5 -39.5t-27.5 -33.5q-7 -2 -9 -5.5t-3 -8.5q-6 -19 -17 -32t-24.5 -21.5t-29 -14t-30.5 -9.5q-66 -21 -126.5 -13t-110.5 58q-14 12 -22 26.5t-6 36.5q0 11 -4 22t-6 24q-3 22 -6 48q1 1 2.5 3t1.5 4q1 8 2.5 14.5
t0.5 14.5q0 8 -1.5 16.5t0.5 17.5q2 13 5.5 26t5.5 26q2 5 7.5 9t10.5 9q-5 21 -3 46q1 9 4 19t13 18q3 4 2.5 12t0.5 15q3 1 3.5 9t1 18.5t3.5 20.5t12 14q1 3 0.5 6t-0.5 6q0 8 0.5 14t11.5 8q2 0 4 4.5t3 7.5q5 13 9.5 26.5t6.5 26.5q1 2 0 4.5t-1 4.5q1 5 0.5 10t1.5 9
q14 23 21.5 46t9.5 49q0 10 5.5 28t13.5 37.5t17 36.5t16 24q5 6 10 16.5t8.5 22t4.5 20.5t-2 11z" />
    <glyph glyph-name="H" unicode="H" horiz-adv-x="785" 
d="M42 241q2 10 3 14q2 16 4 32.5t6 30.5q4 16 10 32t9 33q3 8 6.5 16t5.5 16q2 3 6 5.5t7 6.5q-7 19 1 38t30 48h-10q8 26 16 50.5t16 48.5q17 52 33.5 102.5t34.5 101.5q17 45 33.5 87.5t34.5 85.5q26 66 52.5 131.5t51.5 131.5q12 33 23 68t24 72q11 -5 21.5 -8.5
t21.5 -10.5q22 -13 40 -33q12 -12 17 -25.5t-4 -33.5q-20 -51 -37.5 -101.5t-37.5 -101.5q-15 -43 -32 -86t-33 -87q-4 -5 -4.5 -11.5t-2.5 -14.5q30 0 58.5 -0.5t57.5 0.5q4 1 8.5 6.5t6.5 10.5q42 85 82 170t82 171q2 3 4 7t4 9q64 -22 95 -80q2 -3 2 -8t-2 -9
q-8 -16 -17 -30.5t-17 -30.5q-14 -29 -27 -57.5t-27 -57.5q-23 -52 -44.5 -104t-41.5 -105q-23 -57 -43.5 -113t-42.5 -113q-5 -13 -11.5 -34t-12.5 -42.5t-10.5 -38t-5.5 -20.5q-1 -6 -4.5 -20.5t-7.5 -33.5t-8.5 -39.5t-8.5 -38.5t-6.5 -30.5t-2.5 -14.5q1 -18 -0.5 -36
t-12.5 -35q-2 -4 -0.5 -10.5t3.5 -11.5q0 -11 -3 -21.5t-7 -21t-5.5 -21t1.5 -21.5q1 -2 -5 -6.5t-9 -3.5q-18 2 -31 8q-12 6 -23 13t-22 13q-9 6 -13.5 9.5t-6 8t0.5 11t5 17.5q1 3 4 18.5t7 37t8 46t6.5 45.5t2.5 35.5t-3 15.5l2.5 6t5 14t3.5 16t-2 13q3 8 7 22l8 28
t6.5 25.5t3.5 14.5q6 30 10.5 60.5t12.5 59.5q11 37 24.5 73.5t27.5 72.5q2 6 4 12.5t6 17.5q-29 0 -55 0.5t-52 -1.5q-6 -1 -13 -7t-9 -12q-14 -40 -29 -80t-28 -81q-11 -33 -22 -67t-22 -67q-8 -23 -13.5 -45t-14.5 -43q-12 -38 -27 -74t-28.5 -72.5t-23 -74.5t-9.5 -78
q-1 -3 -5.5 -7.5t-6.5 -4.5q-25 1 -49.5 1.5t-48.5 2.5q12 52 16 98.5t18 94.5z" />
    <glyph glyph-name="I" unicode="I" horiz-adv-x="449" 
d="M4 143q8 26 15 51t14 51q8 32 15 65.5t17 65.5q11 36 24.5 71.5t24.5 71.5q22 66 42.5 131.5t41.5 131.5q20 67 40 133t41 133q10 32 20 64.5t20 64.5q6 25 27 18q27 -8 50.5 -21.5t42.5 -33.5q5 -5 6 -15t-1 -18q-11 -43 -25.5 -85t-26.5 -85q-16 -52 -31 -104l-30 -104
q-20 -67 -39 -133.5t-40 -132.5q-13 -37 -28 -73t-29 -73q-8 -24 -14 -48.5t-12 -49.5q-3 -14 -5.5 -27t-7.5 -26q-5 -17 -8.5 -33t-6.5 -33q-1 -11 -7 -21t-13 -19q-2 -2 -7.5 -2.5t-10.5 0.5q-10 2 -19.5 5t-19.5 5q-66 8 -60 75z" />
    <glyph glyph-name="J" unicode="J" horiz-adv-x="656" 
d="M46 485q-2 6 -4.5 9.5t-4.5 7.5q6 2 7 2q22 -1 43.5 -1.5t44.5 -1.5q6 -1 12 -1.5t11 -2.5q23 -5 16 -26q-14 -42 -21 -84.5t-10 -84.5q-3 -33 -1 -65.5t3 -64.5q1 -5 2.5 -10t3.5 -8q7 -8 14.5 -15t14.5 -15q6 8 11.5 15.5t8.5 15.5q21 50 37 100t30 102q24 85 52 167.5
t51 167.5q27 92 52.5 183.5t51.5 184.5q11 45 24.5 89t26.5 89q6 24 26 14q22 -11 43 -23t40 -26q16 -11 16 -22.5t-7 -30.5q-12 -35 -22 -71l-20 -72q-20 -73 -38 -145t-38 -145q-22 -85 -46.5 -167.5t-50.5 -167.5q-11 -35 -23.5 -70t-17.5 -71q-5 -32 -17.5 -61.5
t-21.5 -60.5q-7 -29 -29 -43.5t-51 -16.5q-54 -2 -105 8t-99 30q-44 19 -58.5 54.5t-12.5 82.5q1 59 9.5 116.5t21.5 114.5q2 9 6 16t19 4z" />
    <glyph glyph-name="K" unicode="K" horiz-adv-x="845" 
d="M413 1058q22 22 41 43t42 38q32 26 67 51t70 44q26 14 54.5 15.5t55.5 -6.5q42 -15 75 -39t53 -66q11 -23 8.5 -48t-11.5 -50q-14 -44 -28.5 -86.5t-29.5 -86.5q-6 -15 -11 -30.5t-11 -31.5q-5 -14 -12.5 -14.5t-15.5 7.5q-13 15 -24.5 31.5t-25.5 31.5q-8 10 -18.5 19
t-21.5 20l13 4q2 15 3 25.5t5 21.5q14 41 30 81.5t32 81.5q5 11 2.5 18t-16.5 8q-5 2 -11 3.5t-10 4.5q-15 14 -31.5 11t-31.5 -14q-31 -23 -61 -47t-61 -49q-23 -18 -45.5 -36t-44.5 -38q-17 -17 -33.5 -36t-34.5 -39q26 -16 49.5 -29.5t45.5 -28.5q37 -28 63 -63.5
t37 -82.5q2 -8 2.5 -16.5t0.5 -17.5q-4 -95 -18.5 -187.5t-38.5 -185.5q-17 -64 -32.5 -127.5t-30.5 -128.5q-3 -11 -9.5 -17t-16.5 -2q-17 6 -34 14t-33 17q-6 2 -11 7t-11 8q-21 14 -31.5 31.5t-0.5 48.5q13 38 23.5 77t18.5 78q19 74 36.5 147t32.5 148q8 42 13 83.5
t10 83.5q4 25 -4 42.5t-33 27.5q-12 4 -21.5 11.5t-20.5 12.5q-9 5 -15.5 3.5t-10.5 -14.5q-17 -58 -36.5 -115.5t-36.5 -115.5q-18 -62 -34.5 -123.5t-31.5 -123.5q-15 -51 -27.5 -101t-22.5 -101q-7 -26 -7.5 -53.5t-2.5 -54.5q-3 -35 -34 -27q-26 8 -50.5 16.5
t-49.5 17.5q-8 2 -8 11q-5 26 -5.5 50.5t12.5 50.5q5 8 6 19t-1 22q-2 20 2 41.5t9 42.5q10 34 19 67t18 67q13 47 26 92.5t27 92.5q9 35 18 71t21 71q34 100 68.5 199t70.5 199q17 49 34.5 97.5t34.5 97.5q2 4 2.5 8t1.5 8q0 11 5.5 13t12.5 0q34 -11 62.5 -29.5
t48.5 -46.5q4 -5 4 -12.5t-2 -12.5q-19 -51 -37.5 -101t-36.5 -101q-1 -4 -1 -8t-1 -10z" />
    <glyph glyph-name="L" unicode="L" horiz-adv-x="860" 
d="M326 1244q20 0 33.5 -12t28.5 -23q12 -9 22.5 -20.5t21.5 -22.5q9 -8 10 -17t-3 -20q-11 -35 -20.5 -70.5t-19.5 -70.5q-11 -37 -21.5 -73.5t-21.5 -73.5q-20 -71 -40.5 -140.5t-43.5 -139.5q-27 -87 -51 -174q-7 -24 -12 -49t-13 -49q-8 -25 -16.5 -49t-15.5 -48
q-6 -17 -9.5 -33t-6.5 -32q2 -3 5 -5q11 3 22 5t19 7q82 39 168.5 54t177.5 13q52 -2 104 -6t104 -9q5 -1 9.5 -5.5l8.5 -8.5q4 -2 9 -5.5t13 -8.5q7 -20 14.5 -42.5t15.5 -45.5q2 -6 0.5 -12.5t-1.5 -12.5l-12 2t-13 2q-9 1 -17.5 2t-16.5 2q-51 1 -101.5 4.5t-100.5 6.5
t-100 5t-101 1q-48 -6 -95 -15.5t-95 -20.5q-11 -2 -19.5 -10t-19.5 -13q-9 -4 -18 -7t-17 -1q-39 6 -55 13.5t-21 23t-5.5 41t-9.5 67.5q8 18 11 39t6 41q32 123 71 249t79.5 253.5t81.5 256.5t77 257z" />
    <glyph glyph-name="M" unicode="M" horiz-adv-x="1044" 
d="M597 757q17 21 31 40t28 37q32 45 64.5 88t64.5 87q30 42 60.5 81.5t59.5 81.5q8 11 14 9.5t14 -6.5t12 -10q20 -23 40.5 -45.5t42.5 -44.5q55 -57 29 -135q-6 -19 -8.5 -38.5t-7.5 -38.5q-19 -68 -38.5 -135t-38.5 -135q-18 -68 -36 -135t-35 -135q-9 -35 -14.5 -69
t-13.5 -69q-4 -20 -9.5 -39.5t-8.5 -39.5q-5 -35 -9.5 -71t-9.5 -71q-2 -11 -3 -23t-3 -23q-2 -10 -9 -12.5t-15 2.5q-26 15 -51.5 30t-49.5 32q6 24 9 52.5t5 58.5t4.5 59.5t7.5 55.5q5 18 7.5 36.5t7.5 35.5q8 25 13.5 50t10.5 50q8 34 14 67.5t16 66.5q23 76 46 151.5
t48 151.5q8 23 18.5 45t18.5 45q5 15 8 31t6 31q1 2 -1.5 5.5t-4.5 8.5q-12 -17 -19 -29q-24 -36 -47 -73t-47 -73q-22 -27 -41 -58t-39 -61t-43.5 -56.5t-54.5 -42.5q-15 15 -31.5 30t-31 31.5t-26 34.5t-18.5 41q-8 29 -17.5 58.5t-17.5 59.5q-11 42 -21.5 83.5
t-21.5 83.5q-2 5 -3.5 9.5t-3.5 9.5h-6q-4 -11 -7.5 -21.5t-7.5 -21.5q-26 -75 -51 -149.5t-50 -150.5q-20 -59 -37.5 -117.5t-35.5 -118.5q-8 -26 -13.5 -51.5t-13.5 -51.5t-16 -50.5t-16 -50.5q-3 -12 -6 -33t-8 -42t-11 -38.5t-15 -23.5q-5 -3 -9.5 -5.5t-9.5 -2.5
q-11 0 -31.5 4.5t-41 13t-35.5 19.5t-15 24q0 42 11 84t26.5 84.5t32.5 85t29 85.5q29 110 68 215.5t77 211.5q24 66 46 131.5t44 131.5q4 12 5 25l2 26q1 10 5 14t14 -1q28 -14 53.5 -32t42.5 -46q15 -38 23.5 -78t17 -79.5t19.5 -79t31 -75.5q8 -24 17.5 -48t20.5 -50z
" />
    <glyph glyph-name="N" unicode="N" 
d="M497 353q65 195 117.5 390t95.5 397q8 -2 18 -3.5t18 -6.5q21 -14 42.5 -29.5t42.5 -32.5q4 -4 5.5 -13t-0.5 -16q-6 -26 -13.5 -52.5t-13.5 -52.5t-12.5 -52.5t-11.5 -52.5l-12 -64t-13 -64q-8 -36 -18 -72l-20 -72q-5 -23 -10.5 -46.5t-11.5 -46.5q-18 -63 -37 -124
t-36 -124q-6 -26 -11.5 -51.5t-10.5 -51.5q-4 -22 -7 -43.5t-8 -42.5q-2 -11 -5 -20.5t-6 -20.5q-26 5 -52 8t-51 12q-14 5 -21.5 20t-10.5 32q-8 69 -15 136.5t-15 136.5q-11 94 -23 187t-23 187q-5 35 -9.5 70.5t-8.5 70.5q-2 10 -10 20q-5 -25 -10.5 -49.5t-11.5 -49.5
q-23 -84 -45.5 -166.5t-45.5 -166.5q-3 -10 -11.5 -41.5t-20.5 -73t-26 -87.5t-26.5 -83.5t-22.5 -62t-14 -23.5q-18 5 -37.5 7t-35.5 13q-28 21 -30 57t8 78t23.5 85t17.5 78q34 125 68 248.5t66 248.5q19 75 34 150.5t32 151.5q2 9 2 18.5t2 21.5q8 -2 16.5 -3t16.5 -5
q45 -26 90 -54q16 -12 10 -38q-18 -58 -4 -117q8 -32 13.5 -65t13.5 -66l16 -76t14 -76q14 -89 26 -177.5t26 -177.5q-1 -4 3 -12z" />
    <glyph glyph-name="O" unicode="O" horiz-adv-x="765" 
d="M66 575q7 32 14 63t15 63q5 22 11 43t13 43q25 76 52 150.5t72 143.5q59 91 140 160q33 14 71 8.5t76.5 -23t73.5 -41t62 -45.5q23 -19 43 -41.5t38 -47.5q16 -22 14.5 -48t-4.5 -52q-8 -73 -29 -142t-43 -139q-13 -38 -23 -77t-21 -77q-6 -21 -10.5 -42t-12.5 -41
q-12 -32 -18.5 -64.5t-19.5 -64.5q-9 -23 -19.5 -46.5t-21.5 -46.5q-24 -57 -72 -91.5t-108 -49t-125.5 -9.5t-122.5 28q-14 7 -28.5 24.5t-27 38t-22.5 40.5t-16 34q-3 43 2.5 86.5t14.5 87t18.5 87.5t13.5 88zM485 480q0 7 -1 14.5t1 14.5q27 92 54.5 182.5t53.5 183.5
q15 54 26.5 107t22.5 107q5 19 -2 28.5t-24 17.5q-49 36 -88.5 33.5t-72 -29.5t-59 -72.5t-48.5 -96t-40.5 -99t-36.5 -82.5q-8 -52 -25 -110t-36 -119t-35.5 -123.5t-23.5 -122.5t-0.5 -116.5t34.5 -105.5q27 -12 50.5 -6t44 22t38.5 36t35 35q17 29 32 60l30 62
q9 17 17 35t14 36q8 23 13.5 45.5t12.5 45.5q2 5 6 9t7 8z" />
    <glyph glyph-name="P" unicode="P" horiz-adv-x="825" 
d="M757 1248q14 -17 27.5 -34.5t23.5 -37.5q9 -19 11 -37.5t-1 -37t-9.5 -36.5t-13.5 -36q-11 -29 -21 -59t-21 -59q-8 -21 -15 -42.5t-15 -42.5q-16 -45 -31 -90.5t-31 -90.5q-12 -35 -23.5 -69t-25.5 -68q-8 -20 -20.5 -38.5t-31.5 -29.5q-12 -8 -28 -11t-31 -4
q-54 -3 -103.5 5t-93.5 43q-15 12 -28.5 26t-28.5 27q-8 8 -13.5 4t-7.5 -13q-16 -58 -29.5 -119.5t-27 -123.5t-29 -122.5t-34.5 -115.5q-16 3 -35 9.5t-35.5 19.5t-27 32.5t-10.5 47.5q27 112 50.5 221.5t48.5 217.5t54.5 215t68.5 214q18 60 33.5 120.5t32.5 120.5
q1 5 2 9t1 9q-1 19 2.5 22t20.5 -8q19 -11 36.5 -24.5t34.5 -27.5q9 -7 14 -8t15 6q17 14 36 25t37 23q10 6 18 14t19 13q15 8 31 14t33 8q19 3 41.5 0.5t45.5 -12t45 -26.5t39 -43zM720 1222q-1 7 -1 10.5t-2 6.5q-5 10 -14 20t-21 16.5t-24.5 9.5t-22.5 0q-30 -9 -61 -15
t-56 -28q-16 -14 -36 -22t-37 -21q-5 -4 -11.5 -6t-12.5 -4.5t-11 -7t-6 -13.5q-4 -17 -8.5 -32.5t-9.5 -31.5q-9 -39 -17.5 -78t-18.5 -77q-12 -45 -25.5 -89.5t-27.5 -89.5q-11 -39 -23.5 -77.5t-25.5 -76.5q-5 -15 -3.5 -29t12.5 -25t22 -23t24 -20q11 -8 24 -12t27 -9
q15 -5 29.5 -3.5t32.5 13.5q47 42 73.5 94.5t46.5 110.5q12 35 22 70t23 69q28 75 57 149t58 149q7 19 13 37t11 35z" />
    <glyph glyph-name="Q" unicode="Q" horiz-adv-x="761" 
d="M737 1125q11 -21 14 -43.5t-4 -46.5q-7 -26 -9.5 -51.5t-10.5 -51.5q-9 -32 -21.5 -61.5t-23.5 -60.5q-10 -29 -18.5 -57.5t-17.5 -57.5q-14 -46 -27.5 -91t-27.5 -91q-11 -35 -19.5 -69.5t-20.5 -68.5q-7 -17 -8.5 -34t-5.5 -34q-4 -14 -9.5 -27t-6.5 -28
q-2 -18 -4.5 -36t-4.5 -36q-1 -5 2.5 -10t6.5 -7q29 -11 57 -22t57 -16q12 -1 29 2q-8 -36 -18 -72q-3 -12 -6.5 -23.5t-6.5 -22.5q-29 -1 -56.5 4t-53.5 22q-17 11 -34 21t-35 21q-1 2 -5 6q-5 7 -10 13t-13 9q-4 1 -7 -2q-5 -1 -8 -1t-6 -1q-11 -5 -22 -11t-22 -11
q-4 -2 -7 -2.5t-7 -2.5q-10 -4 -19.5 -5.5t-18.5 -6.5q-6 1 -14 -2q-11 1 -22 -0.5t-22 -3.5q-25 -4 -48.5 0t-46.5 12q-32 12 -60.5 31t-53.5 44q-4 4 -5 6q-11 20 -21 40t-19 41q-2 3 -2 13t0.5 23t1.5 26t2 21q1 9 3 35.5t3.5 55t3 52.5t2.5 27q8 32 15.5 65t15.5 66
q4 17 6.5 35.5t7.5 35.5q27 79 53.5 157.5t55.5 156.5q25 69 51.5 136.5t52.5 136.5q5 16 7.5 33.5t7.5 38.5q16 -11 29.5 -18.5t23.5 -18.5q17 -19 33.5 -18t36.5 10q35 17 71.5 19t74.5 0q22 -2 40 -10t32.5 -20t26.5 -27l24 -30q19 -24 33 -51t28 -55zM653 1159
q1 16 -4 34t-14.5 33.5t-23 27t-29.5 15.5q-20 5 -40 7.5t-35 5.5q-12 -7 -21 -14t-16 -5q-18 5 -29 -3.5t-21 -18.5q-11 -11 -21 -22t-15 -24q-14 -37 -24.5 -74.5t-24.5 -74.5q-23 -65 -47 -127.5t-46 -127.5q-25 -74 -47.5 -148.5t-43.5 -149.5q-11 -39 -20.5 -78.5
t-9.5 -81.5q0 -26 -3.5 -50.5t-6.5 -49.5q-1 -12 -3 -24.5t-2 -24.5q0 -7 3.5 -13.5t4.5 -14.5q5 -26 22.5 -44.5t43.5 -23.5q35 -8 67.5 -1.5t64.5 19.5q17 7 34.5 15t29.5 25q-13 22 -25 43t-25 43q-43 70 -39 152q2 28 1 56.5t-1 58.5q38 -14 67.5 -37t55.5 -54
q4 7 6.5 12t4.5 10q5 20 9 39t9 38q2 8 7 15t7 15q5 16 8 32t8 31q13 42 27 82t28 81q19 56 37.5 111t39.5 110q17 43 32 85.5t20 89.5z" />
    <glyph glyph-name="R" unicode="R" horiz-adv-x="914" 
d="M898 1230q17 -20 13 -47q-4 -20 -4 -39.5t-5 -37.5q-10 -35 -23 -68t-26 -68q-12 -32 -25.5 -63.5t-26.5 -63.5q-16 -42 -31 -82t-31 -81q-9 -20 -17.5 -40t-16.5 -41q-5 -9 -3.5 -16t12.5 -13q17 -10 31.5 -20.5t29.5 -21.5q20 -13 26.5 -31.5t9.5 -39.5q5 -27 -5 -53
t-19 -52q-17 -48 -34.5 -95.5t-34.5 -95.5q-5 -14 -8 -29.5t-8 -30.5q-4 -14 -8 -26.5t-9 -26.5q-1 -2 -2 -5t-1 -5q2 -15 -9 -22.5t-26 -2.5q-15 6 -30.5 12.5t-29.5 14.5t-17 24q-29 65 -1 131q9 23 24 55.5t30.5 68t28.5 72t17 67.5t-4 53t-33 30q-17 5 -47 14.5
t-65.5 21t-71.5 22.5t-66 19.5t-49.5 12t-20.5 -0.5q-9 -26 -18 -51.5t-17 -51.5q-14 -46 -28.5 -92t-28.5 -92q-3 -14 -10 -26.5t-8 -26.5q-1 -11 -6 -17.5t-13 -12.5q3 2 6.5 2.5t5.5 0.5q-2 -11 -3.5 -23.5t-4.5 -24.5q-2 -14 -6 -27t-9 -27q-5 -18 -11.5 -36.5
t-11.5 -37.5q-6 -17 -25 -23t-40 -4.5t-38 11t-20 24.5q-12 -2 -13.5 3t1.5 13q0 2 0.5 3.5t0.5 3.5q7 22 13.5 43t13.5 43q9 32 16.5 63t14.5 63l2 10t3 11q10 27 18.5 53.5t16.5 55.5q11 39 20 77.5t23 76.5q27 79 56.5 157t59.5 156q18 48 38.5 94.5t40.5 94.5
q28 64 54 129q7 17 11.5 32.5t9.5 32.5q29 -7 52 -26t46 -37q15 10 29.5 19t29.5 19q32 21 68 32.5t76 16.5q36 4 62 -10t50 -31q17 -13 31 -29.5t28 -33.5zM817 1246q2 5 0 11t-4 8q-11 6 -20.5 13.5t-19 14.5t-20.5 11.5t-26 4.5q-18 0 -42.5 -6.5t-49 -17.5t-45 -24.5
t-29.5 -28.5q-11 -17 -22.5 -35.5t-19.5 -38.5q-18 -39 -33.5 -79.5t-32.5 -80.5q-15 -36 -30 -72.5t-30 -73.5q-13 -32 -24.5 -64.5t-25.5 -64.5q-3 -9 -1.5 -16.5t10.5 -13.5q56 -42 94.5 -60.5t65.5 -18t45 18.5t33 48.5t30 72t36 90.5q29 69 60 137t59 137q14 32 23 64
t19 64z" />
    <glyph glyph-name="S" unicode="S" horiz-adv-x="715" 
d="M157 -23q1 11 0 23l7.5 -4.5t6.5 -3.5q-5 3 -7 7q10 4 18 8t16 9q0 1 -2 2.5t-4 3.5q-8 8 -6.5 17.5t3.5 20.5l22 68t22 69q17 63 35.5 125.5t36.5 125.5q14 45 29 90t29 90q3 8 3 14.5t-2 14.5q-16 -17 -35 -21.5t-39 -6.5q-40 -5 -77.5 -0.5t-68.5 21.5q-7 2 -9.5 6.5
t-5.5 9.5q-3 3 -3.5 7.5t-4.5 6.5q-14 5 -13.5 14.5t2.5 17.5q6 26 14 52.5t17 52.5q15 43 32 85t34 85q17 37 36 73.5t39 72.5q14 27 30 54t33 53q8 14 19.5 28t22.5 28q15 20 31 38t33 37q19 23 41.5 34t52.5 7q5 -1 12.5 1.5t12.5 3.5q45 5 88 2t81 -19q17 -8 21.5 -16
t-2.5 -25q-12 -35 -26 -69l-28 -68q-19 -44 -36.5 -86.5t-37.5 -85.5l-28 -76t-29 -76q-5 -15 -10.5 -29.5t-10.5 -28.5q-7 -19 -28 -14q-13 5 -26.5 9.5t-27.5 9.5q-6 2 -11.5 5t-12.5 5q-17 6 -12 23q14 38 27 76.5t29 76.5q31 77 62 152.5t63 151.5q7 14 11 28t9 28
q-35 -2 -60 -13.5t-39 -37.5q-1 -3 -6 -5q-8 -14 -18.5 -27t-15.5 -30q-8 -17 -19.5 -33t-21.5 -33q-11 -19 -20 -37t-20 -37q-5 -8 -10.5 -16.5t-9.5 -16.5q-5 -9 -9.5 -19t-9.5 -20q-12 -25 -26 -50t-25 -50q-7 -17 -12.5 -34t-13.5 -34l-24 -66t-23 -65
q-7 -20 -14.5 -39.5t-12.5 -39.5q-10 -42 41 -25q13 5 27 12t28 13q31 13 59.5 13t57.5 -2q17 -2 26 -3q41 -10 38 -51q-2 -15 -6 -30t-7 -30q-19 -53 -38 -105.5t-36 -105.5q-16 -51 -29 -101.5t-29 -102.5q-5 -17 -8.5 -33t-10.5 -33q-8 -18 -19 -36.5t-21 -36.5
q-6 -6 -9 -6q-20 -4 -20 -22q-1 -2 -6 -6t-10 -6q-18 -8 -38 -16t-41 -15q-32 -11 -63.5 -14.5t-63.5 -3.5q-14 0 -28 1t-28 3q-7 1 -14 3t-9 7q-9 17 -17.5 35t-6.5 41q3 30 10.5 60t16.5 61q11 43 23.5 85.5t23.5 85.5q11 45 23 88t23 87q2 14 14 14q24 2 47 3.5t45 -0.5
q30 -1 24 -30q-22 -81 -44.5 -162t-44.5 -162q-8 -32 -15 -64t-15 -64q-2 -7 -5.5 -15t-3.5 -16q3 -33 44 -30q11 1 22.5 2t24.5 2z" />
    <glyph glyph-name="T" unicode="T" horiz-adv-x="806" 
d="M337 1295h-74t-72 -1h-106q-23 0 -31.5 12t-14.5 29q-5 15 -7.5 31t-5.5 31q-1 5 1 10.5t13 6.5l108 2t108 0q43 -1 84.5 -5t84.5 -6q27 -1 54 -0.5t53 1.5q43 1 86.5 2t86.5 2q15 -1 31 -3.5t32 -4.5q9 -2 21 -0.5t17 -8.5q0 -1 4 0.5t6 1.5q3 -19 7.5 -37.5t7.5 -37.5
q0 -6 -1 -13.5t-6 -12.5q-2 -3 -9.5 -2.5t-12.5 0.5q-44 -2 -84 -3q-44 -1 -86.5 -2.5t-85.5 -3.5h-35t-35 -2q-5 -1 -10.5 -6.5t-8.5 -10.5q-11 -35 -23.5 -70t-23.5 -70q-14 -50 -30 -99.5t-30 -98.5q-14 -47 -26 -92.5t-24 -91.5q-14 -49 -29 -97t-30 -97
q-10 -32 -19 -63t-20 -63q-9 -29 -19 -59.5t-18 -60.5q-7 -23 -10.5 -48t-9.5 -49q-5 -24 -11.5 -48.5t-12.5 -48.5q-2 -11 -5 -22.5t-2 -22.5q1 -21 -11.5 -39.5t-33.5 -23.5q-23 -5 -43 -4t-33 16q-9 9 -7 23q13 66 26.5 131t28.5 131q5 21 8.5 41.5t8.5 40.5
q19 63 37.5 124t36.5 124q23 73 45 146.5t44 147.5q16 54 32 109t33 109q10 32 21 63.5t21 62.5q2 7 4.5 14t4.5 16z" />
    <glyph glyph-name="U" unicode="U" 
d="M478 115q4 0 7.5 -1t11.5 -3q-11 -6 -18 -7q-25 -2 -46.5 -12t-43.5 -26q-20 -15 -44.5 -23.5t-51.5 -6.5q-20 1 -39 -2.5t-38 -1.5q-46 2 -86 17t-72 44q-5 5 -10.5 8t-10.5 8q-4 3 -8 5.5t-6 6t-2 8t5 11.5q1 1 -3 7.5t-8 8.5q-17 8 -22 16.5t-2 28.5q0 5 -0.5 9
t-2.5 7q-16 23 -18 50t-3 53q-2 9 1.5 17.5t5.5 17.5q10 51 19 101t23 101q18 73 40.5 145t44.5 144q11 38 21 75.5t21 74.5q19 63 39 123t38 121q16 49 30 97t30 99q13 -5 25.5 -10t23.5 -12q15 -10 29 -20.5t27 -23.5q6 -5 8.5 -15.5t0.5 -18.5q-6 -26 -14 -50.5
t-16 -50.5q-21 -68 -41 -135t-42 -135q-6 -20 -13.5 -40.5t-13.5 -41.5q-5 -16 -7.5 -32t-7.5 -32q-6 -23 -12.5 -45t-13.5 -45q-14 -43 -29 -85t-28 -85q-10 -34 -15.5 -68t-15.5 -67q-8 -23 -11.5 -44t-5.5 -44q0 -11 -4 -21.5t-5 -21.5q-5 -29 -7.5 -56.5t-2.5 -56.5
q1 -4 0.5 -9.5t0.5 -11.5t5 -11t13 -7q4 0 7.5 -7.5t5.5 -14.5q6 -18 19.5 -29.5t30.5 -18.5q13 -6 26.5 -11.5t27.5 -5.5q34 -2 66.5 5.5t61.5 32.5q2 2 5 3.5t6 2.5q27 13 39.5 34.5t20.5 48.5q12 46 28 91t28 92q14 57 24 115t25 116q23 79 47.5 157.5t50.5 156.5
q23 70 49.5 138.5t52.5 137.5q6 15 13.5 30.5t14.5 30.5q8 17 22 10q29 -12 52.5 -29.5t41.5 -42.5q12 -17 -1 -37q-11 -14 -17.5 -29t-13.5 -31q-15 -38 -28.5 -75t-27.5 -75q-19 -54 -37 -108t-35 -108q-12 -38 -23.5 -76t-21.5 -77q-12 -52 -22.5 -103.5t-21.5 -102.5
q-4 -19 -9 -37.5t-10 -37.5q-1 -6 -1 -12.5t-1 -12.5q-5 -17 -8.5 -34t-8.5 -34q-5 -12 -10.5 -23.5t-10.5 -24.5q-18 -46 -64 -28q-5 2 -10.5 2.5t-11.5 2.5q-2 -6 -1 -8z" />
    <glyph glyph-name="V" unicode="V" 
d="M808 1242q14 -11 19.5 -23.5t5.5 -26.5t-4.5 -29.5t-10.5 -31.5q-38 -100 -73 -199t-73 -198q-9 -24 -24 -63l-32.5 -84.5t-36 -92.5t-34.5 -88.5t-28 -72.5t-17 -44q-7 -18 -23 -48t-34 -60t-33.5 -54.5t-19.5 -31.5q-7 -11 -22.5 -15.5t-19.5 -4.5q-18 -3 -35 -7.5
t-34.5 -8.5t-35 -5.5t-35.5 2.5q-30 7 -61 13.5t-58 20.5q-33 11 -50.5 34.5t-27.5 52.5q-1 0 -1 1q-1 1 -1 2q-5 2 -2 5q1 0 1 1q-8 27 -9 54t1 50q2 26 6 50q7 78 14.5 154.5t17.5 153.5q10 73 24 146t26 146q1 9 2 18.5t-1 17.5q3 7 7 14.5t6 15.5q14 64 28.5 128.5
t28.5 130.5q5 19 7 37.5t4 38.5h3h6q63 -18 103 -70q7 -11 2 -24q-12 -62 -23 -122t-22 -122q-12 -63 -22.5 -125t-21.5 -125q-8 -49 -16.5 -97t-13.5 -96q-7 -67 -12.5 -134t-10.5 -135q0 -5 -0.5 -10.5t-0.5 -10.5q-2 -19 -2.5 -37t-0.5 -37q1 -11 2 -23t5 -24
q7 -27 27.5 -41.5t43.5 -20.5q4 1 9.5 7t11 13.5t10.5 14.5t7 11q53 92 94 187t78 194q20 54 46 107t47 108q31 77 61 153.5t60 154.5q21 54 39.5 108.5t37.5 108.5q2 9 5.5 17.5t6.5 19.5q26 -4 43 -19.5t36 -29.5z" />
    <glyph glyph-name="W" unicode="W" horiz-adv-x="1202" 
d="M1165 1115q23 -17 13 -48q-11 -33 -19.5 -66t-22.5 -65q-16 -36 -27 -72t-20.5 -73t-19 -73.5t-22.5 -73.5q-32 -95 -61.5 -189.5t-61.5 -190.5q-12 -31 -30.5 -59.5t-46.5 -50.5q-20 -16 -35 -29q-8 -6 -15 -13t-11 -12q-18 -5 -35.5 -9t-34.5 -8q-23 -9 -54 -12
q-1 -1 -2 -1h-1h-13q-50 -4 -104 2.5t-92 18.5q-4 0 -4 1q-34 11 -52.5 32.5t-26.5 38.5q-2 0 -3 0.5t-2 0.5q-8 -8 -16 -15t-15 -13q-8 -7 -15 -14q-45 -43 -90 -52t-99 9q-3 2 -6.5 3.5t-8.5 3.5q-26 9 -44.5 30t-27.5 47q-5 8 -9 15.5t-6 16.5q-6 17 -9 33.5t-5 34.5
q1 4 0.5 8t-1.5 9q0 43 4.5 86t11 86t12.5 86t9 86q5 66 16 130t22 129q15 81 31.5 160.5t33.5 159.5q5 28 8.5 55t8.5 55q29 4 47.5 -5.5t35.5 -18.5l6 -3q27 -11 33 -32t-2 -52q-14 -63 -25 -126.5t-22 -126.5q-13 -73 -25.5 -146.5t-23.5 -148.5q-6 -47 -9 -92.5
t-8 -92.5q-6 -41 -13 -80t-9 -79q-3 -30 -2.5 -59.5t2.5 -59.5q-2 -11 -0.5 -23t1.5 -26q0 -2 3 -4.5t5 -4.5q7 -3 9 -10q7 -22 22.5 -27.5t39.5 2.5q27 8 45.5 28t35.5 41q3 2 4 6t6 6q25 17 34 41.5t11 48.5q5 62 19 122t32 122q15 61 31.5 121.5t33.5 122.5
q10 38 19 75.5t20 75.5q8 31 18.5 61t18.5 59q2 2 7 5t9 3q36 -2 66.5 -17t51.5 -41q3 -4 2 -10.5t-1 -10.5q-12 -39 -26 -76t-25 -75q-12 -45 -21 -90.5t-23 -91.5q-9 -42 -20.5 -82.5t-22.5 -82.5q-7 -28 -13 -56t-13 -57q-7 -46 -13 -91l-12 -90q-1 -1 -1 -2q0 -2 0.5 -3
t-0.5 -3q-3 -61 90 -63q23 5 44 20.5t41 37.5q43 42 70 92t44 104q41 121 81 240.5t80 240.5q26 76 52 153.5t55 155.5q2 10 4 19.5t7 23.5q12 -7 23.5 -12.5t22.5 -14.5q13 -9 24.5 -18.5t21.5 -20.5z" />
    <glyph glyph-name="X" unicode="X" horiz-adv-x="1100" 
d="M427 444q-11 -11 -19.5 -21.5t-14.5 -20.5q-33 -42 -65.5 -83.5t-64.5 -83.5q-23 -31 -43.5 -62t-41.5 -62q-5 -8 -12 -13.5t-14 -12.5q-4 -3 -9.5 -6t-10.5 -8t-13 -10.5t-17 -10.5t-17.5 -8t-14.5 -3q-24 2 -46.5 4.5t-45.5 6.5q-20 4 -40 9.5t-37 13.5q22 0 42.5 0.5
t38.5 0.5q14 20 25.5 37t22.5 34q69 97 135.5 192t135.5 190q17 26 37.5 49.5t37.5 48.5q6 9 10 22t2 22q-10 105 -21 208t-22 207q-6 46 -12.5 90t-13.5 89q-2 11 -7.5 13.5t-16.5 -4.5q-32 -17 -57 -11.5t-45 25.5q8 3 14.5 6t11.5 5q31 10 62.5 19.5t60.5 19.5
q5 1 11.5 -1.5t5.5 -4.5q0 -8 13.5 -15t31.5 -12.5t35 -9.5t24 -7q5 -2 5.5 -10.5t2.5 -15.5q2 -14 2 -28t3 -27q10 -50 19 -99t18 -97q6 -33 10 -66t8 -67q2 -6 4 -12.5t5 -14.5q21 26 38 49t37 46q60 71 120.5 140t120.5 139q24 28 49.5 53.5t49.5 51.5q11 13 22 16.5
t23 0.5q15 -3 29.5 -6.5t28.5 -8.5q20 -7 31.5 -21t19.5 -37q-28 -2 -41 -3q-8 -12 -16 -23l-16 -22q-20 -27 -38.5 -53.5t-39.5 -50.5q-43 -51 -87 -99.5t-85 -99.5q-36 -42 -68.5 -85t-66.5 -87q-19 -23 -37 -46.5t-36 -48.5q-4 -6 -7 -15.5t-1 -15.5q9 -46 18.5 -91
t22.5 -89q13 -25 21 -54.5t14.5 -60.5l13 -62t16.5 -57t26 -46.5t41 -30.5q-17 -19 -31 -21t-27 -5q-34 -4 -67.5 -5t-68.5 -4q-18 0 -34 6t-33 12t-35.5 9.5t-40.5 -1.5q13 14 27 20.5t28 10.5t27.5 7t25.5 10q-18 30 -29 64t-19.5 69t-17 70.5t-21.5 69.5z" />
    <glyph glyph-name="Y" unicode="Y" horiz-adv-x="790" 
d="M689 1486q20 -16 41 -31t41 -32q5 -3 9 -8t9 -10q7 -11 8.5 -22.5t-7.5 -29.5q-20 -35 -35.5 -72t-30.5 -75q-29 -75 -57 -150.5t-54 -151.5q-5 -16 -8 -32t-9 -33q-10 -32 -21.5 -62.5t-22.5 -62.5q-7 -18 -27.5 -30.5t-38.5 -10.5t-35 -3q-17 -4 -22.5 -2t-13.5 17
q-2 -2 -5.5 -2.5t-4.5 -2.5q-13 -17 -28 -32.5t-21 -32.5q-25 -85 -49.5 -168.5t-47.5 -168.5q-13 -48 -23 -94t-22 -94q-6 -28 -14.5 -55.5t-16.5 -54.5q-2 -5 -3.5 -8t0.5 -6q0 -20 -8 -38t-28 -32q-3 -3 -6 -7t-7 -9q-26 10 -51 20t-48 22q-16 8 -18.5 25t2.5 36
q11 36 20 72.5t19 73.5q30 106 60 211.5t62 212.5q8 30 17 60.5t20 60.5q7 28 -18 33q-39 7 -68 25.5t-51 46.5q-19 23 -32 51.5t-10 63.5q2 25 7.5 50t12.5 51q34 115 81 226.5t94 223.5q5 10 9 20t10 24q11 -3 22.5 -4.5t21.5 -6.5q20 -11 38.5 -23t36.5 -26q22 -14 9 -49
q-16 -32 -29 -63t-27 -63q-22 -51 -42.5 -102t-39.5 -102q-17 -46 -32.5 -92t-29.5 -93q-6 -25 -5.5 -50t3.5 -48q2 -11 14.5 -19.5t24.5 -9.5q20 -4 41.5 -1.5t43.5 2.5q55 2 90.5 35t50.5 80q23 67 44.5 133.5t46.5 132.5q35 91 72.5 180.5t75.5 179.5q2 2 10 6z" />
    <glyph glyph-name="Z" unicode="Z" horiz-adv-x="750" 
d="M96 -87q13 -3 25 -3.5t23 -2.5q20 -1 38.5 7t29.5 25q5 8 6 16t5 16q13 33 26.5 66t25.5 65q31 85 61 168t60 167q13 31 45 32q26 1 49.5 -0.5t48.5 -3.5q11 0 8 -13q-18 -45 -34.5 -90.5t-32.5 -90.5t-30 -89t-31 -89q-12 -32 -23 -62.5t-29 -62.5q-13 -24 -33 -41.5
t-41 -36.5q-8 -4 -17 -7t-17 -4q-33 -3 -66 -3q-35 0 -67 3t-61 15q-15 8 -31 16t-30 17q-5 2 -8 5.5t0 7.5q9 17 -10 20q-2 1 -4 8q2 18 2 37t3 37q4 18 11 35.5t12 34.5q18 52 36.5 104.5t34.5 104.5q18 55 33 109.5t31 108.5q8 29 24 62q14 23 31 35t44 18q8 2 15.5 2.5
t15.5 1.5q16 1 32 1.5t31 0t29 -3.5t26 -10q11 -7 21 -14t23 -12q45 -17 61 26q7 20 12 40.5t11 40.5q9 34 18 67.5t17 68.5q5 18 11 35.5t8 34.5q4 26 6.5 51.5t4.5 50.5q1 11 2 20.5t2 19.5q2 9 1 18t0 18l4 38t4 39q0 17 -2 33.5t3 33.5q3 17 1.5 30.5t-3.5 27.5
q-1 4 0 6q0 52 -73 52q-6 -14 -11 -28.5t-7 -28.5q-17 -79 -33 -156.5t-33 -157.5q-8 -39 -20 -78.5t-23 -79.5q-2 -11 -9.5 -16t-18.5 -8q-8 -2 -16.5 -5.5t-16.5 -5.5q-17 -5 -35 -9.5t-35 -9.5q-12 -2 -18 1t-3 15q4 14 7 28.5t6 30.5q11 39 21 78.5t20 78.5q11 45 19 88
t17 88q9 36 16 71t16 70q5 18 15 27t34 17q53 16 101 19.5t95 -2.5q5 -1 10 -2.5t10 -1.5q37 5 54 -7.5t23 -36.5q5 -18 9.5 -37t8.5 -39q4 -14 5.5 -28.5t3.5 -29.5q-1 -28 -1 -55.5t-2 -54.5q-4 -38 -8.5 -75.5t-11.5 -75.5q-8 -45 -19 -88t-22 -88q-6 -27 -15 -54.5
t-20 -53.5q-2 -10 -9 -18.5t-24 -15.5q-5 -2 -9 -6t-12 -9q-5 -4 -10.5 -9t-12.5 -7q-89 -32 -173 -20q-19 2 -36.5 6.5t-25.5 21.5q-5 -8 -10.5 -15.5t-7.5 -13.5q-15 -48 -29 -93.5t-28 -93.5q-23 -65 -45.5 -130t-43.5 -129q-11 -36 -22.5 -71.5t-21.5 -70.5
q-4 -11 -9.5 -21t-20.5 -18q-4 -2 -6.5 -3.5t-4.5 -3.5q8 -4 14 -8t12 -9q-2 -2 -5 -3t-5 -3q4 2 8 3.5t10 3.5q-4 -6 -7.5 -11.5t-7.5 -10.5z" />
    <glyph glyph-name="colon" unicode=":" 
 />
    </font>
</defs>
</svg>
